<?xml version="1.0" standalone="no"?>
<!DOCTYPE svg PUBLIC "-//W3C//DTD SVG 20010904//EN"
 "http://www.w3.org/TR/2001/REC-SVG-20010904/DTD/svg10.dtd">
<svg version="1.0" xmlns="http://www.w3.org/2000/svg"
 width="290.000000pt" height="290.000000pt" viewBox="0 0 290.000000 290.000000"
 preserveAspectRatio="xMidYMid meet">
<metadata>
Created by potrace 1.14, written by Peter Selinger 2001-2017
</metadata>
<g transform="translate(0.000000,290.000000) scale(0.100000,-0.100000)"
fill="#000000" stroke="none">
<path d="M1270 2890 c-178 -25 -330 -74 -491 -157 -139 -72 -252 -158 -374
-285 -195 -203 -317 -432 -377 -711 -31 -147 -31 -427 0 -574 30 -137 73 -257
139 -384 72 -139 158 -252 285 -374 203 -195 432 -317 711 -377 147 -31 427
-31 574 0 137 30 257 73 384 139 139 72 252 158 374 285 195 203 317 432 377
711 31 147 31 427 0 574 -45 207 -138 417 -257 574 -82 110 -249 269 -355 340
-161 107 -333 180 -518 219 -111 24 -368 34 -472 20z m388 -526 c274 -56 460
-239 480 -472 l5 -62 -184 2 -183 3 -6 30 c-25 120 -142 195 -305 195 -146 0
-259 -61 -285 -154 -18 -64 -6 -110 41 -161 52 -56 107 -79 322 -132 322 -78
450 -146 549 -291 54 -79 72 -144 71 -267 0 -123 -18 -189 -74 -277 -65 -100
-211 -197 -353 -233 -158 -40 -391 -40 -549 1 -238 60 -401 222 -442 437 -8
43 -15 90 -15 103 l0 24 185 0 185 0 6 -27 c27 -124 96 -197 217 -229 69 -18
211 -18 274 1 174 52 241 225 125 326 -53 47 -117 71 -317 122 -310 79 -393
116 -501 222 -55 54 -76 84 -94 130 -28 72 -37 206 -21 286 43 206 218 363
466 419 104 24 298 26 403 4z"/>
</g>
</svg>
