<svg width="195" height="33" viewBox="0 0 195 33" fill="none" xmlns="http://www.w3.org/2000/svg">
<path d="M0.078125 21.7188C0.15625 21.7318 0.520833 21.849 1.17188 22.0703C1.83594 22.2786 2.63672 22.5195 3.57422 22.793C4.51172 23.0534 5.44922 23.2878 6.38672 23.4961C7.33724 23.6914 8.14453 23.7891 8.80859 23.7891C9.38151 23.7891 9.85026 23.7044 10.2148 23.5352C10.5794 23.3659 10.7617 23.0534 10.7617 22.5977C10.7617 22.1029 10.5013 21.6536 9.98047 21.25C9.45964 20.8464 8.78906 20.4297 7.96875 20C7.16146 19.5703 6.29557 19.082 5.37109 18.5352C4.45964 17.9883 3.59375 17.3307 2.77344 16.5625C1.96615 15.7943 1.30208 14.8763 0.78125 13.8086C0.260417 12.7279 0 11.4388 0 9.94141C0 8.10547 0.384115 6.55599 1.15234 5.29297C1.92057 4.01693 2.94922 2.99479 4.23828 2.22656C5.54036 1.44531 6.9987 0.878906 8.61328 0.527344C10.2409 0.175781 11.9076 0 13.6133 0C15.0586 0 16.4258 0.078125 17.7148 0.234375C19.0039 0.390625 20.0911 0.559896 20.9766 0.742188C21.875 0.924479 22.4414 1.04818 22.6758 1.11328V10.0781C22.6758 10.0781 22.4023 10.0195 21.8555 9.90234C21.3216 9.78516 20.6445 9.65495 19.8242 9.51172C19.0169 9.36849 18.1771 9.23828 17.3047 9.12109C16.4453 9.00391 15.6901 8.94531 15.0391 8.94531C14.4401 8.94531 13.9909 9.04948 13.6914 9.25781C13.3919 9.46615 13.2422 9.71354 13.2422 10C13.2422 10.2344 13.3724 10.4948 13.6328 10.7812C13.8932 11.0547 14.2057 11.2695 14.5703 11.4258C15.9375 12.0247 17.2266 12.6367 18.4375 13.2617C19.6484 13.8867 20.7161 14.6094 21.6406 15.4297C22.5651 16.25 23.2878 17.2526 23.8086 18.4375C24.3424 19.6094 24.6094 21.0482 24.6094 22.7539C24.6094 24.7852 24.0951 26.556 23.0664 28.0664C22.0508 29.5768 20.5794 30.7487 18.6523 31.582C16.7383 32.4154 14.4271 32.832 11.7188 32.832C9.38802 32.832 7.46745 32.7214 5.95703 32.5C4.44661 32.2786 3.26172 32.0312 2.40234 31.7578C1.54297 31.4714 0.9375 31.2174 0.585938 30.9961C0.247396 30.7747 0.078125 30.6641 0.078125 30.6641V21.7188Z" fill="#FDF8F3"/>
<path d="M28.7695 0.878906H51.25V9.86328H40.918V12.4219H51.2109V20.0781H40.918V23.0273H51.9336V32.0703H28.7695V0.878906Z" fill="#FDF8F3"/>
<path d="M55.293 0.878906H84.8242V10.9961H76.1328V32.0703H63.9844V10.9961H55.293V0.878906Z" fill="#FDF8F3"/>
<path d="M106.934 0.878906H119.102V32.0703H106.934V20.5469L100.449 21.1133V32.0703H88.3008V0.878906H100.449V12.1484L106.934 11.6211V0.878906Z" fill="#FDF8F3"/>
<path d="M129.258 0.0957031C130.922 0.0957031 132.146 0.470703 132.932 1.2207C133.729 1.9707 134.127 2.83203 134.127 3.80469C134.127 4.53125 133.898 5.25195 133.441 5.9668C132.996 6.66992 132.34 7.25586 131.473 7.72461C130.605 8.18164 129.545 8.41016 128.291 8.41016C126.486 8.41016 125.215 8.04688 124.477 7.32031C123.75 6.58203 123.387 5.75 123.387 4.82422C123.387 4.07422 123.604 3.3418 124.037 2.62695C124.471 1.90039 125.121 1.29688 125.988 0.816406C126.867 0.335938 127.957 0.0957031 129.258 0.0957031ZM133.828 32.0703H123.65V10.2207H133.828V32.0703Z" fill="#FDF8F3"/>
<path d="M138.375 0.878906H160.816V9.70703H150.523V12.5977H160.816V21.1133H150.523V32.0703H138.375V0.878906Z" fill="#FDF8F3"/>
<path d="M172.184 19.9023L162.672 0.878906H176.598L179.703 7.26562L182.906 0.878906H194.547L184.84 19.9023V32.0703H172.184V19.9023Z" fill="#FDF8F3"/>
<path d="M134.125 3.82031C134.125 6.30559 131.642 8.57031 128.125 8.57031C124.608 8.57031 123.375 7.05559 123.375 4.57031C123.375 2.08503 125.231 0.0703125 128.747 0.0703125C132.625 0.0703125 134.125 1.32031 134.125 3.82031Z" fill="#FF6B4A"/>
</svg>
