<svg width="55" height="78" viewBox="0 0 55 78" fill="none" xmlns="http://www.w3.org/2000/svg">
<path d="M24.2032 0.310298L29.9954 0H34.5464L37.0288 0.103433L40.9592 0.517162C51.5093 1.55149 53.7848 11.2741 53.7848 20.1693C53.7848 21.3071 53.8883 24.0997 52.1299 24.0997H41.6833C40.1318 24.0997 39.9249 22.238 39.9249 20.9968L39.8215 17.0663C39.718 14.7908 36.5116 14.6874 34.9601 14.6874H29.7885C28.5473 14.6874 27.3062 14.8943 26.065 15.2046C23.3757 15.6183 22.962 16.4458 22.8586 19.0316L25.9615 16.6526C26.3753 16.4457 27.3061 16.4458 27.7199 16.4458L22.7551 20.1693V21.8242L29.892 16.4458H31.5469L23.8929 22.238H22.7551C22.7551 25.8581 24.2032 26.3753 27.513 26.6856L30.8229 26.9959H31.1331V26.8924L38.1665 21.6174C38.27 21.9277 38.1665 22.3414 38.1665 22.4448V22.8586L32.6846 26.9959L32.5812 27.0993L34.443 27.3062L38.3734 24.3066C38.4768 24.41 38.5803 24.7203 38.5803 24.8238C38.5803 24.9272 38.7871 25.1341 38.7871 25.2375L35.9945 27.4096H36.2013C36.2013 27.4096 37.3391 27.513 37.9597 27.513L40.2352 25.8581H41.8901L39.4077 27.7199L41.0627 27.9267H41.2695L44.0622 25.8581H45.0965V26.2718L42.5107 28.237L44.0622 28.5473C44.4759 28.5473 44.6828 28.0302 45.0965 27.9267V28.8576H45.2C54.4054 31.8572 54.8192 39.718 54.8192 47.9926C54.8192 69.5066 46.0274 70.0237 27.7199 70.0237L22.238 69.61C13.4462 68.9894 8.99862 61.232 8.79175 53.0608L8.68832 48.1995V47.6823C8.68832 46.2343 8.79175 44.8897 10.2398 44.3725H11.5844L15.7217 41.373C16.032 41.373 16.4458 41.5798 16.756 41.7867L13.2393 44.3725H15.4114L18.3075 42.3039L19.5487 42.6141L17.0663 44.3725H19.2384L21.3071 42.821L22.6517 43.0279L20.8933 44.3725C21.4105 44.4759 21.7208 44.6828 22.1345 45.0965L24.5135 43.3382V43.2347L25.9615 43.4416L22.5483 46.0274C22.4448 46.2343 22.4448 46.3377 22.4448 46.3377C22.4448 46.5446 22.5483 47.372 22.5483 47.5789L27.9267 43.6485L28.0302 43.545C28.4439 43.545 28.9611 43.6485 29.3748 43.6485L22.5483 48.8201V49.4407C22.5483 53.2677 22.5483 54.7157 26.9959 55.1295C28.6508 55.3363 30.2023 55.3363 31.8572 55.3363H32.3743V54.4054L39.3043 49.2338C39.4077 49.4407 39.4077 49.751 39.4077 50.0613V50.3716L32.7881 55.3363H33.5121H34.2361H34.9601L39.3043 52.1299V52.3368C39.3043 52.5437 39.3043 53.1643 39.2009 53.2677L36.9254 55.1295C37.546 55.1295 38.0631 54.8192 38.5803 54.7157C41.1661 53.7848 40.9592 51.0956 41.0627 48.8201C41.0627 47.5789 40.9592 46.4411 40.8558 45.2C40.4421 42.7176 38.3734 42.2004 36.2013 42.097L30.8229 41.8901L25.2375 41.4764L20.9968 40.7524C13.1359 39.6146 9.41235 31.9606 9.10205 24.7203L8.99862 20.6865C8.99862 10.0329 12.1016 1.03432 24.2032 0.310298ZM9.30891 10.4467L2.79267 15.308C2.79267 14.9977 3.93043 13.4462 4.34416 12.929L9.10205 9.30892C9.20548 9.20548 10.0329 8.89519 10.1364 8.89519L9.30891 10.4467ZM1.65492 17.7904L8.48146 12.7222V12.8256C8.48146 12.8256 8.17116 13.7565 8.06773 14.2737L1.24119 19.3419V19.0316C1.34462 18.8247 1.55149 17.9972 1.65492 17.7904ZM0.827459 21.2036L7.75743 16.032L7.55056 17.4801L0.620594 22.6517L0.827459 21.3071V21.2036ZM26.065 22.1345L33.6155 16.5492V16.4458C34.2361 16.4458 34.5464 16.4457 35.167 16.6526L27.6164 22.238H27.2027C27.2027 22.238 26.2718 22.238 26.065 22.1345ZM29.3748 22.5483L36.7185 17.0663C37.0288 17.0663 37.4425 17.3766 37.6494 17.5835L30.5126 22.962C29.9954 22.7551 29.6851 22.6517 29.3748 22.5483ZM31.0297 24.0997L38.1665 18.8247V19.859V20.0659L31.1331 25.2375C31.1331 24.9272 31.0297 24.5135 31.0297 24.0997ZM0.41373 25.4444V24.41L7.3437 19.135V19.4453C7.3437 19.7556 7.55056 20.2727 7.24027 20.4796L0.41373 25.6512V25.4444ZM0.310297 27.3062L7.24027 22.1345H7.3437V23.2723L0.41373 28.4439L0.310297 28.5473V27.3062ZM0.41373 30.0988L7.3437 24.9272C7.44713 25.2375 7.44713 25.5478 7.44713 25.8581V26.065L0.517162 31.2366C0.413729 31.1331 0.310297 30.4091 0.310297 30.2023C0.310297 30.0988 0.310297 30.0988 0.41373 30.0988ZM0.620594 32.7881L7.55056 27.6165C7.654 28.0302 7.75743 28.7542 7.75743 28.7542L0.620594 34.0293C0.620594 33.8224 0.517162 33.0984 0.517162 32.8915L0.620594 32.7881ZM0.930891 35.3739L7.96429 30.2023L8.06773 31.0297L8.17116 31.1332C8.17116 31.1332 8.06773 31.1331 8.06773 31.2366L1.03432 36.4082C1.03432 36.2013 0.930891 35.6842 0.930891 35.3739ZM1.34462 37.7528H1.44805L8.48146 32.4778L8.79175 33.5121L1.65492 38.7871C1.65492 38.6837 1.55149 38.4768 1.55149 38.3734C1.44805 38.27 1.34462 37.7528 1.34462 37.7528ZM2.17208 40.0283L9.20548 34.7533H9.30891L9.72264 35.5807L2.58581 40.9592C2.48238 40.7524 2.27551 40.4421 2.17208 40.0283ZM3.2064 42.097L10.3432 36.8219L10.4467 36.7185V36.8219L10.9638 37.546L3.72357 42.9244C3.72357 42.9244 3.41327 42.4073 3.2064 42.097ZM4.55102 43.9588L11.7913 38.5803L12.5153 39.3043L5.17162 44.6828C5.17162 44.6828 4.86132 44.2691 4.55102 43.9588ZM6.30938 45.5103L13.5496 40.1318L14.4805 40.6489L7.24027 46.1308C6.92997 46.0274 6.41281 45.7171 6.30938 45.5103ZM23.9963 49.4407L31.4434 43.7519H31.5469H31.7537H32.3743H33.0984L25.5478 49.4407C25.4444 49.5441 25.5478 49.4407 25.4444 49.4407H23.9963ZM28.8576 49.751L27.513 49.5441L35.0636 43.9588C35.3739 43.9588 35.9945 44.0622 36.3048 44.1656L28.8576 49.751ZM30.4091 50.1647L37.7528 44.6828C38.1666 44.6828 38.5803 45.3034 38.5803 45.3034L31.4434 50.6819C31.1331 50.475 30.5126 50.2681 30.4091 50.1647ZM31.9606 51.8196L38.994 46.5446H39.0974C39.3043 46.7514 39.2009 47.2686 39.2009 47.5789V47.6823L32.1675 52.9574C32.1675 52.5437 32.064 52.2334 31.9606 51.8196ZM0.310297 52.854L1.65492 51.8196H3.30984L0 54.302C0 53.9917 0.103433 52.9574 0.310297 52.854ZM0 55.9569L5.48192 51.8196H7.0334V51.9231L0 57.1981V55.9569ZM0 58.7496L7.0334 53.4745C7.0334 53.6814 7.13683 54.302 7.13683 54.7157L0.103432 59.9908C-9.68575e-08 59.5771 0 59.2668 0 58.7496ZM0.206865 61.4388L7.24027 56.2672C7.24027 56.2672 7.3437 56.9913 7.3437 57.405L0.310297 62.5766C0.310297 62.5766 0.206865 61.956 0.206865 61.4388ZM0.517162 64.0247L7.55056 58.7496C7.654 59.1633 7.86086 59.7839 7.86086 59.8874L0.724027 65.1624L0.517162 64.1281V64.0247ZM1.34462 67.5414L1.03432 66.507L8.06773 61.232H8.17116L8.48146 62.1629L1.34462 67.5414ZM2.27551 69.61L1.86178 68.7825L8.99862 63.4041C9.10205 63.4041 9.10205 63.4041 9.10205 63.5075L9.51578 64.2315L2.27551 69.61ZM2.99954 70.6443L10.1364 65.3693L10.6535 66.0933V66.1967L3.5167 71.5752L2.99954 70.7478V70.6443ZM4.24073 72.6095L11.481 67.2311L11.5844 67.1276L12.3085 67.8517L4.96476 73.3336L4.55102 72.9198C4.55102 72.8164 4.34416 72.6095 4.24073 72.6095ZM5.99908 74.161L13.2393 68.7825L13.3428 68.6791L14.1702 69.2997L6.82654 74.7816C6.82654 74.7816 6.51624 74.4713 6.30938 74.3679C6.30938 74.3679 5.99908 74.2645 5.99908 74.161ZM8.17116 75.4022L15.4114 69.9203H15.5149L16.5492 70.334L9.20548 75.8159L9.10205 75.9194C8.89519 75.9194 8.27459 75.6091 8.17116 75.4022ZM32.6846 77.0571H32.5812L40.3386 71.2649C40.4421 71.1615 41.4764 70.9546 41.6833 70.9546C41.7867 70.8512 42.6141 70.6443 42.821 70.6443L34.7533 76.6434C34.6498 76.7468 32.8915 77.0571 32.6846 77.0571ZM10.6535 76.4365L18.1007 70.8512L19.3419 71.1615L11.7913 76.7468C11.481 76.7468 10.9638 76.6434 10.6535 76.4365ZM13.6531 77.0571H13.5496L20.9968 71.4718C21.1002 71.3684 21.1002 71.4718 21.2036 71.4718C21.6174 71.4718 22.1345 71.4718 22.5483 71.5752L14.9977 77.1606C14.4805 77.1606 13.7565 77.0571 13.6531 77.0571ZM28.237 77.4709L35.891 71.7821C36.0979 71.5752 37.4425 71.5752 37.7528 71.5752L30.0988 77.264C30.0988 77.3674 29.0645 77.3674 28.237 77.4709ZM17.0663 77.3674H16.9629L24.5135 71.6786H24.7203C25.1341 71.6786 25.6512 71.6786 26.065 71.7821L18.5144 77.4709H18.3075C18.1007 77.4709 17.1698 77.3674 17.0663 77.3674ZM24.3066 77.5743L31.8572 71.8855H31.9606C31.9606 71.7821 32.8915 71.7821 33.6155 71.7821L25.9615 77.5743H24.3066ZM20.583 77.4709L28.1336 71.8855H29.7885L22.1345 77.5743H21.7208C21.3071 77.5743 20.9968 77.5743 20.583 77.4709Z" fill="#FF6B4A"/>
</svg>
