<svg transform="scale(1)" id="_0059_ui_design" xmlns="http://www.w3.org/2000/svg" xmlns:xlink="http://www.w3.org/1999/xlink" viewBox="0 0 500 500" class="show_show__wrapper__graphic__5Waiy "><title>React</title><defs><style>.cls-1{fill:url(#linear-gradient-21);}.cls-1,.cls-2,.cls-3,.cls-4,.cls-5,.cls-6,.cls-7,.cls-8,.cls-9,.cls-10,.cls-11,.cls-12,.cls-13,.cls-14,.cls-15,.cls-16,.cls-17,.cls-18,.cls-19,.cls-20,.cls-21,.cls-22,.cls-23,.cls-24,.cls-25,.cls-26,.cls-27{stroke-width:0px;}.cls-1,.cls-4,.cls-23{isolation:isolate;}.cls-1,.cls-23{opacity:.19;}.cls-2{fill:none;}.cls-3{fill:url(#linear-gradient);}.cls-4{opacity:.18;}.cls-4,.cls-27{fill:#6c63ff;}.cls-5{fill:url(#linear-gradient-11);}.cls-6{fill:url(#linear-gradient-12);}.cls-7{fill:url(#linear-gradient-13);}.cls-8{fill:url(#linear-gradient-10);}.cls-9{fill:url(#linear-gradient-17);}.cls-10{fill:url(#linear-gradient-16);}.cls-11{fill:url(#linear-gradient-19);}.cls-12{fill:url(#linear-gradient-15);}.cls-13{fill:url(#linear-gradient-18);}.cls-14{fill:url(#linear-gradient-14);}.cls-15{fill:url(#linear-gradient-20);}.cls-16{fill:url(#linear-gradient-4);}.cls-17{fill:url(#linear-gradient-3);}.cls-18{fill:url(#linear-gradient-8);}.cls-19{fill:url(#linear-gradient-9);}.cls-20{fill:url(#linear-gradient-7);}.cls-21{fill:url(#linear-gradient-5);}.cls-22{fill:url(#linear-gradient-6);}.cls-23{fill:url(#linear-gradient-2);}.cls-24{fill:#231f20;}.cls-25{fill:#fff;}.cls-26{fill:#ffaa71;}</style><linearGradient id="linear-gradient" x1="378.09" y1="-584.4" x2="390.09" y2="-888.82" gradientTransform="translate(-140.43 942.66)" gradientUnits="userSpaceOnUse"><stop offset="0" stop-color="#fff" stop-opacity="0"></stop><stop offset="1" stop-color="#fff"></stop></linearGradient><linearGradient id="linear-gradient-2" x1="287.34" y1="-748.26" x2="483.79" y2="-748.26" gradientTransform="translate(-140.43 942.66)" gradientUnits="userSpaceOnUse"><stop offset="0" stop-color="#231f20" style="stop-color: rgb(35, 31, 32);"></stop><stop offset="1" stop-color="#68e1fd" style="stop-color: rgb(108, 99, 255);"></stop></linearGradient><linearGradient id="linear-gradient-3" x1="381.83" y1="-913.75" x2="410.08" y2="-845.95" xlink:href="#linear-gradient"></linearGradient><linearGradient id="linear-gradient-4" x1="194.54" y1="-920.09" x2="194.2" y2="-908.26" gradientTransform="translate(-140.43 942.66)" gradientUnits="userSpaceOnUse"><stop offset="0" stop-color="#68e1fd" style="stop-color: rgb(108, 99, 255);"></stop><stop offset="0" stop-color="#68e1fd" style="stop-color: rgb(108, 99, 255);"></stop><stop offset="1" stop-color="#e7faff" style="stop-color: rgb(231, 250, 255);"></stop></linearGradient><linearGradient id="linear-gradient-5" x1="208.68" y1="-919.69" x2="208.34" y2="-907.85" xlink:href="#linear-gradient-4"></linearGradient><linearGradient id="linear-gradient-6" x1="113.37" y1="-919.13" x2="113.04" y2="-907.29" gradientTransform="translate(-31 942.5)" xlink:href="#linear-gradient-4"></linearGradient><linearGradient id="linear-gradient-7" x1="290.95" y1="-867.68" x2="249.02" y2="-860.92" gradientTransform="translate(-140.43 942.66)" gradientUnits="userSpaceOnUse"><stop offset="0" stop-color="#fff" stop-opacity="0"></stop><stop offset="1" stop-color="#fff"></stop></linearGradient><linearGradient id="linear-gradient-8" x1="296.84" y1="-831.2" x2="254.91" y2="-824.44" xlink:href="#linear-gradient-7"></linearGradient><linearGradient id="linear-gradient-9" x1="302.72" y1="-794.73" x2="260.79" y2="-787.97" xlink:href="#linear-gradient-7"></linearGradient><linearGradient id="linear-gradient-10" x1="308.61" y1="-758.23" x2="266.68" y2="-751.46" xlink:href="#linear-gradient-7"></linearGradient><linearGradient id="linear-gradient-11" x1="525.82" y1="-768.92" x2="336.53" y2="-771.75" gradientTransform="translate(-31 942.5)" xlink:href="#linear-gradient"></linearGradient><linearGradient id="linear-gradient-12" x1="391.24" y1="-825.99" x2="391.24" y2="-516.92" gradientTransform="translate(-140.43 942.66)" gradientUnits="userSpaceOnUse"><stop offset="0" stop-color="#000" stop-opacity="0"></stop><stop offset=".97" stop-color="#000"></stop></linearGradient><linearGradient id="linear-gradient-13" x1="303.82" y1="-597.25" x2="308.42" y2="-597.25" xlink:href="#linear-gradient-12"></linearGradient><linearGradient id="linear-gradient-14" x1="336.39" y1="-597.25" x2="340.98" y2="-597.25" xlink:href="#linear-gradient-12"></linearGradient><linearGradient id="linear-gradient-15" x1="196.69" y1="-692.59" x2="229.25" y2="-692.59" gradientTransform="translate(-31 942.5)" xlink:href="#linear-gradient-12"></linearGradient><linearGradient id="linear-gradient-16" x1="196.69" y1="-658.92" x2="229.25" y2="-658.92" gradientTransform="translate(-31 942.5)" xlink:href="#linear-gradient-12"></linearGradient><linearGradient id="linear-gradient-17" x1="196.69" y1="-625.26" x2="229.25" y2="-625.26" gradientTransform="translate(-31 942.5)" xlink:href="#linear-gradient-12"></linearGradient><linearGradient id="linear-gradient-18" x1="196.69" y1="-591.58" x2="229.25" y2="-591.58" gradientTransform="translate(-31 942.5)" xlink:href="#linear-gradient-12"></linearGradient><linearGradient id="linear-gradient-19" x1="196.69" y1="-557.92" x2="229.25" y2="-557.92" gradientTransform="translate(-31 942.5)" xlink:href="#linear-gradient-12"></linearGradient><linearGradient id="linear-gradient-20" x1="196.69" y1="-524.25" x2="229.25" y2="-524.25" gradientTransform="translate(-31 942.5)" xlink:href="#linear-gradient-12"></linearGradient><linearGradient id="linear-gradient-21" x1="298.79" y1="-763.01" x2="322.37" y2="-763.01" xlink:href="#linear-gradient-2"></linearGradient></defs><path class="cls-4" d="M122.9,370.72c-14.23,16.61-34.43,30.04-39.58,51.3-4.04,16.63,3.41,35.43,17.73,44.77,12.25,8.03,27.88,9.07,42.37,7.27,14.49-1.8,28.65-6.07,43.16-7.93,17.26-2.16,34.75-.76,52.11-1.69,17.36-.93,35.33-4.65,48.92-15.5,4.2-3.35,7.99-7.48,9.7-12.57,1.8-5.4,1.09-11.25,1.17-16.95.4-17.96,8.83-34.8,22.96-45.89,7.98-6.17,17.45-10.24,25.11-16.82,12.84-11.27,19.06-28.3,16.49-45.19-.97-5.98-131.2-.33-143.84.14-11.77.44-23.53.98-35.3,1.62-7.96.43-24.28-1.62-30.67,3.7-5.74,4.78-8.71,19.06-12.26,25.9-5.09,9.86-10.87,19.38-18.09,27.84Z"></path><g id="screen"><path class="cls-27" d="M456.62,41.02v255.19c0,10.65-8.62,19.29-19.27,19.3H52.93c-10.65,0-19.29-8.64-19.29-19.29h0V41.02c.03-10.64,8.65-19.25,19.29-19.26h384.42c10.63.02,19.24,8.63,19.27,19.26Z"></path><path class="cls-3" d="M456.62,41.02v255.19c0,10.65-8.62,19.29-19.27,19.3H52.93c-10.65,0-19.29-8.64-19.29-19.29h0V41.02c.03-10.64,8.65-19.25,19.29-19.26h384.42c10.63.02,19.24,8.63,19.27,19.26Z"></path><path class="cls-23" d="M153.22,73.36l-6.31,2.97v127.19l16.5,59.56,2.28,51.6,41.74.76v-88.96l17.25-25.51,118.69-.46v-6.61l-190.14-120.54ZM209.1,203.71c-1.67,3.79-5.22,7.35-7.7,10.67-3.04,4.09-6.12,8.16-9.25,12.23-.27.4-.63.75-1.03,1.02-1.46.83-3.16-.55-4.23-1.84-6.1-7.37-10.81-15.79-13.89-24.85-.21-.44-.24-.95-.1-1.42.31-.68,1.24-.76,2-.76,9.41.26,18.82.57,28.23.95,3.22.12,7.96-.57,5.97,3.98v.02Z"></path><path class="cls-27" d="M457.89,40.95v3.79H34.9v-3.79c0-10.66,8.64-19.3,19.3-19.31h384.39c10.66,0,19.29,8.64,19.3,19.3h0Z"></path><path class="cls-27" d="M457.89,40.95v3.79H34.9v-3.79c0-10.66,8.64-19.3,19.3-19.31h384.39c10.66,0,19.29,8.64,19.3,19.3h0Z"></path><path class="cls-17" d="M457.89,40.95v3.79H34.9v-3.79c0-10.66,8.64-19.3,19.3-19.31h384.39c10.66,0,19.29,8.64,19.3,19.3h0Z"></path><path class="cls-16" d="M56.84,33.21c0,1.68-1.36,3.04-3.04,3.04s-3.04-1.36-3.04-3.04,1.36-3.04,3.04-3.04,3.04,1.36,3.04,3.04Z"></path><path class="cls-21" d="M70.99,33.21c0,1.68-1.36,3.04-3.04,3.04s-3.04-1.36-3.04-3.04,1.36-3.04,3.04-3.04,3.04,1.36,3.04,3.04Z"></path><circle class="cls-22" cx="82.1" cy="33.2" r="3.04"></circle><path class="cls-27" d="M126.28,44.76v270.68H54.18c-10.65,0-19.29-8.64-19.3-19.29V44.76h91.39Z"></path><path class="cls-20" d="M114.08,88.22H47.88c-1.12,0-2.02-.91-2.03-2.03h0c0-1.11.9-2.02,2.01-2.03h66.22c1.12,0,2.02.91,2.03,2.03h0c0,1.12-.91,2.02-2.03,2.03Z"></path><path class="cls-18" d="M114.08,125.65H47.88c-1.12,0-2.02-.91-2.03-2.03h0c0-1.12.9-2.03,2.02-2.03h66.21c1.12,0,2.03.91,2.03,2.03h0c0,1.12-.91,2.02-2.03,2.03Z"></path><path class="cls-19" d="M114.08,163.09H47.88c-1.12,0-2.02-.91-2.03-2.03h0c-.02-1.12.88-2.05,2-2.06,0,0,.02,0,.02,0h66.2c1.12,0,2.02.91,2.03,2.03h0c.02,1.12-.88,2.05-2,2.06,0,0-.02,0-.02,0Z"></path><path class="cls-8" d="M114.08,200.51H47.88c-1.11,0-2.02-.9-2.03-2.01h0c0-1.11.9-2.02,2.01-2.03h66.22c1.11,0,2.02.87,2.05,1.98h0c.01,1.12-.89,2.04-2.01,2.06-.01,0-.03,0-.04,0Z"></path><rect class="cls-27" x="281.99" y="227.56" width="68.51" height="25.35"></rect><path class="cls-27" d="M457.89,44.76v251.37c0,10.65-8.62,19.3-19.28,19.31h-64.03V44.76h83.31Z"></path><rect class="cls-5" x="374.58" y="116.16" width="83.31" height="112.49"></rect></g><g id="image"><rect class="cls-25" x="153.21" y="69.62" width="194.85" height="126.84"></rect><rect class="cls-27" x="160.5" y="76.31" width="180.61" height="113.45"></rect><path class="cls-6" d="M341.11,137.91v51.85h-180.61v-34.39c10.29-11.49,25.5-19.1,39.04-28.5,2.46-1.86,5.15-3.41,7.99-4.62,11.63-4.39,23.96,3.26,34.53,9.79,12.8,7.91,26.29,14.65,40.3,20.13-4.71-6.81-11.54-11.88-19.43-14.42l18.43-15.27c2.28-1.89,4.63-3.79,7.41-4.82,5.59-2,11.74.08,17.26,2.28,7.72,3.08,15.32,6.43,22.81,10.04,4.4,2.16,8.86,4.45,12.26,7.94Z"></path><circle class="cls-25" cx="314.96" cy="98.36" r="12.17"></circle></g><g id="stair"><path class="cls-27" d="M165.68,463.22h0c1.26,0,2.28-1.02,2.28-2.28v-231.08c0-1.26-1.02-2.28-2.28-2.28h0c-1.26,0-2.28,1.02-2.28,2.28v231.06c0,1.26,1.02,2.28,2.28,2.28v.02Z"></path><path class="cls-27" d="M198.25,463.22h0c1.26,0,2.28-1.02,2.28-2.28v-231.08c0-1.26-1.02-2.28-2.28-2.28h0c-1.26,0-2.28,1.02-2.28,2.28v231.06c0,1.26,1.02,2.28,2.28,2.28v.02Z"></path><rect class="cls-27" x="165.69" y="247.29" width="32.56" height="5.24"></rect><rect class="cls-27" x="165.69" y="280.96" width="32.56" height="5.24"></rect><rect class="cls-27" x="165.69" y="314.62" width="32.56" height="5.24"></rect><rect class="cls-27" x="165.69" y="348.29" width="32.56" height="5.24"></rect><rect class="cls-27" x="165.69" y="381.96" width="32.56" height="5.24"></rect><rect class="cls-27" x="165.69" y="415.63" width="32.56" height="5.24"></rect><path class="cls-7" d="M165.68,463.22h0c1.26,0,2.28-1.02,2.28-2.28v-231.08c0-1.26-1.02-2.28-2.28-2.28h0c-1.26,0-2.28,1.02-2.28,2.28v231.06c0,1.26,1.02,2.28,2.28,2.28v.02Z"></path><path class="cls-14" d="M198.25,463.22h0c1.26,0,2.28-1.02,2.28-2.28v-231.08c0-1.26-1.02-2.28-2.28-2.28h0c-1.26,0-2.28,1.02-2.28,2.28v231.06c0,1.26,1.02,2.28,2.28,2.28v.02Z"></path><rect class="cls-12" x="165.69" y="247.29" width="32.56" height="5.24"></rect><rect class="cls-10" x="165.69" y="280.96" width="32.56" height="5.24"></rect><rect class="cls-9" x="165.69" y="314.62" width="32.56" height="5.24"></rect><rect class="cls-13" x="165.69" y="348.29" width="32.56" height="5.24"></rect><rect class="cls-11" x="165.69" y="381.96" width="32.56" height="5.24"></rect><rect class="cls-15" x="165.69" y="415.63" width="32.56" height="5.24"></rect></g><g id="character"><path class="cls-1" d="M167.48,164.69c1.27,1.46,2.5,3.29,4.41,3.6.6,0,1.2.14,1.75.37.76.47.85,1.52.87,2.39.11,3.94.21,7.88.31,11.81.06,2.21,0,4.64-1.43,6.3-.65.76-1.52,1.24-2.21,1.99-.76.69-.95,1.81-.47,2.71,3.84.01,7.65.74,11.22,2.16l-20.66.42c-.52.06-1.05-.04-1.52-.27-.71-.46-.81-1.43-.83-2.28-.08-3.38,0-6.75.18-10.12.22-2.24.25-4.49.11-6.73-.28-2.82-1.24-5.63-.7-8.41.87-4.48,5.32-8.11,8.95-3.93Z"></path><path class="cls-26" d="M137.39,226.28s-3.33.89-5.25-1.01c-1.92-1.9-.93-7.99-.93-7.99l34.48-41.81.68,11.75-28.98,39.06Z"></path><path class="cls-26" d="M184.33,227.57s5.11,7.07,8.39,7.24c3.28.17,23.05-35.01,23.05-35.01l4.33-3.33s-9.4-1.52-10.67.2c-1.27,1.72-15.87,25.8-15.87,25.8l-2.08-1.05-7.16,6.15Z"></path><path class="cls-24" d="M146.42,262.52s-1.52,9.68,0,13.66c1.52,3.98,14.87,27.76,14.87,27.76l-3.45,36.43h10.87l5.24-36.43-6-27.76,7.07-15.56-28.6,1.9Z"></path><path class="cls-24" d="M156.52,274.03l23.35,40.6,2.86,30.76,10.5-2.55-1.75-37.65-14.84-45.33-22.77,2.16s.56,8.68,2.64,12.01Z"></path><path class="cls-26" d="M184.22,345.04s1.23,7.94,1.79,8.51,4.96-.55,4.96-.55l7.28-4.7s0-2.28-5.48-.94c0,0-2.44.14-2.63-3.79l-5.93,1.47Z"></path><path class="cls-26" d="M168.72,340.31l-.76,3.63,6.22,4.35s-.25,1.15-2.45,1.65-12.01-.31-12.14-1.3,1.58-4.11,1.72-4.45.82-3.89.82-3.89h6.6Z"></path><path class="cls-27" d="M154.6,195.24s-9.99,2.43-11.34,5.68c-1.35,3.25-12.32,13.39-12.04,17.39.27,4,7.79,9.15,7.79,9.15l5.75-5.61.65,37.9c.03,1.88,1.25,3.53,3.04,4.11,4.33,1.4,8.98,1.12,14.95-.85,8.49-2.81,13.45-2.53,13.45-2.53l-1.46-40.22,6.91,9,9.21-7.9s-13.53-22.01-15.84-23.37c-2.31-1.37-12.64-2.91-12.64-2.91,0,0-4.56,2.77-8.42.15Z"></path><path class="cls-25" d="M154.6,195.24s-9.99,2.43-11.34,5.68c-1.35,3.25-12.32,13.39-12.04,17.39.27,4,7.79,9.15,7.79,9.15l5.75-5.61.65,37.9c.03,1.88,1.25,3.53,3.04,4.11,4.33,1.4,8.98,1.12,14.95-.85,8.49-2.81,13.45-2.53,13.45-2.53l-1.46-40.22,6.91,9,9.21-7.9s-13.53-22.01-15.84-23.37c-2.31-1.37-12.64-2.91-12.64-2.91,0,0-4.56,2.77-8.42.15Z"></path><path class="cls-26" d="M167.58,172.92c.52,2.85.84,5.72.96,8.61.11,1.08.05,2.18-.18,3.24-.25,1.08-.98,1.98-1.98,2.44-.64.15-1.26.36-1.86.63-.44.32-.75.78-.88,1.31-.17,1-.17,2.03,0,3.04.16,1.01-.07,2.04-.63,2.9-.51.54-1.16.91-1.87,1.09-1.7.53-3.51.61-5.24.21-.27-.05-.53-.15-.76-.32-.24-.24-.41-.53-.49-.86-.63-1.94-1.14-3.92-1.52-5.92-.71-2.8-1.14-5.66-1.3-8.54-.15-2.9.6-5.78,2.14-8.24,1.62-2.39,4.42-4.09,7.3-3.9,1.6.2,3.16.67,4.6,1.4,1.19.58,1.46,1.61,1.72,2.91Z"></path><path class="cls-24" d="M167.58,168.98c.08-1.43-1.06-2.63-2.21-3.49-.22-.14-.41-.32-.57-.52-.16-.32-.28-.65-.36-1-.46-1.31-2.01-1.89-3.4-1.89s-2.75.42-4.13.38c-1.09,0-2.28-.33-3.25.13-.58.31-1.07.76-1.43,1.3-.69.8-1.18,1.75-1.41,2.78-.05.46-.11.93-.2,1.39-.16.51-.42.99-.76,1.4-1.44,1.98-3.54,3.64-4.06,6.03-.33,1.52-.65,3.26.08,4.63,7.07,13.15,8.86,13.91,9.61,13.78s4.72-.29,5.14-5.31c.1-.34.13-.69.1-1.04-.1-.29-.27-.55-.49-.76-.5-.49-.92-1.07-1.23-1.7-.32-.64-.32-1.39,0-2.03.55-.82,1.67-1.04,2.5-.49,0,0,0,0,0,0,.13.08.24.18.34.3.47-1.34-.93-2.86-.35-4.17.34-.76,1.31-1.18,1.64-1.97.44-1.06-.35-2.53.49-3.32.28-.2.58-.37.9-.51.48-.3.58-.69.81-1.15s.3-.42.8-.68c.81-.4,1.35-1.19,1.43-2.09Z"></path><path class="cls-2" d="M209.09,203.69c-1.67,3.79-5.22,7.35-7.7,10.67-3.04,4.09-6.12,8.17-9.25,12.23-.27.4-.63.75-1.03,1.02-1.46.83-3.16-.55-4.23-1.84-6.1-7.37-10.81-15.79-13.89-24.85-.21-.44-.24-.95-.1-1.42.31-.68,1.24-.76,2-.76,9.41.26,18.82.57,28.23.95,3.23.14,7.97-.55,5.98,4Z"></path><path class="cls-24" d="M186.61,349.19c1.57-.38,2.52-1.95,3.84-2.89.31-.23.66-.4,1.04-.48.43-.03.86-.01,1.29.06,1.1.1,2.2-.15,3.31-.15.55,0,1.1.06,1.63.18.57.1,1.09.37,1.52.76.43.4.57,1.03.34,1.58-.18.31-.45.57-.76.76-2.53,1.75-5.08,3.49-7.66,5.22-.76.57-1.61,1.02-2.5,1.33-.85.24-1.75.22-2.6-.05-.34-.09-.64-.28-.88-.54-.18-.24-.3-.52-.36-.81-.3-1.06-.87-2.6-.65-3.71.21-1.12,1.55-1.03,2.44-1.25Z"></path><path class="cls-24" d="M159.89,345.52l-.9,3.04c-.2.43-.2.93,0,1.36.25.29.6.47.98.52.89.25,1.8.42,2.72.52,1.4.1,2.8-.17,4.2-.13,1.59.05,3.19.49,4.72.08.93-.31,1.8-.77,2.57-1.37l1.46-1.01c.12-.06.22-.17.27-.3.05-.19-.1-.37-.25-.5-1.11-.96-2.64-1.21-4.01-1.75-1.25-.49-2.38-1.25-3.32-2.21-.18-.23-.42-.39-.7-.48-.46-.09-.85.3-1.24.55-.8.43-1.72.59-2.62.46-.68-.1-.7-.45-1.12-.89-1.31-1.34-2.46,1.08-2.76,2.1Z"></path></g></svg>