<svg transform="scale(1)" id="_0481_computer_display" xmlns="http://www.w3.org/2000/svg" xmlns:xlink="http://www.w3.org/1999/xlink" viewBox="0 0 500 500" class="show_show__wrapper__graphic__5Waiy "><title>React</title><defs><style>.cls-1{fill:url(#linear-gradient);}.cls-1,.cls-2,.cls-3,.cls-4,.cls-5,.cls-6,.cls-7,.cls-8,.cls-9,.cls-10,.cls-11,.cls-12,.cls-13,.cls-14,.cls-15,.cls-16{stroke-width:0px;}.cls-2{opacity:.18;}.cls-2,.cls-3{isolation:isolate;}.cls-2,.cls-3,.cls-16{fill:#000080;}.cls-3{opacity:.28;}.cls-4{fill:url(#linear-gradient-4);}.cls-5{fill:url(#linear-gradient-2);}.cls-6{fill:url(#linear-gradient-3);}.cls-7{fill:url(#linear-gradient-7);}.cls-8{fill:url(#linear-gradient-5);}.cls-9{fill:url(#linear-gradient-6);}.cls-10{fill:#282328;}.cls-11{fill:#473f47;}.cls-12{fill:#231f20;}.cls-13{fill:#000000;}.cls-14{fill:#fff;}.cls-15{fill:#ffbbab;}</style><linearGradient id="linear-gradient" x1="738.68" y1="3131.49" x2="740.13" y2="2970.09" gradientTransform="translate(-471 3367.76) scale(1 -1)" gradientUnits="userSpaceOnUse"><stop offset="0" stop-color="#000"></stop><stop offset="1" stop-color="#000" stop-opacity="0"></stop></linearGradient><linearGradient id="linear-gradient-2" x1="744.47" y1="2578.07" x2="746.64" y2="3244.56" gradientTransform="translate(-481.37 3348.25) scale(1 -1)" xlink:href="#linear-gradient"></linearGradient><linearGradient id="linear-gradient-3" x1="105.89" y1="283.42" x2="98.72" y2="236.5" gradientTransform="matrix(1,0,0,1,0,0)" xlink:href="#linear-gradient"></linearGradient><linearGradient id="linear-gradient-4" x1="788.38" y1="3001.59" x2="894.71" y2="3140.53" gradientTransform="translate(-481.37 3348.25) scale(1 -1)" xlink:href="#linear-gradient"></linearGradient><linearGradient id="linear-gradient-5" x1="695.94" y1="3050.08" x2="595.07" y2="3137.99" gradientTransform="translate(-481.37 3348.25) scale(1 -1)" xlink:href="#linear-gradient"></linearGradient><linearGradient id="linear-gradient-6" x1="606.63" y1="3124.4" x2="638.7" y2="3148.18" gradientTransform="translate(-481.37 3348.25) scale(1 -1)" xlink:href="#linear-gradient"></linearGradient><linearGradient id="linear-gradient-7" x1="628.71" y1="3126.57" x2="614.3" y2="3159.9" gradientTransform="translate(-481.37 3348.25) scale(1 -1)" xlink:href="#linear-gradient"></linearGradient></defs><path class="cls-2" id="background" d="M243,80.4c-15.29,4.57-29.85,11.28-43.25,19.94-13.84,9.03-23.16,21.75-35.83,31.86-24.76,19.63-55.67,32.81-85.31,43.02-11.78,4.07-23.85,7.98-34.07,15.12-15.69,10.95-25.59,28.52-31.8,46.61-13.67,39.7-11.31,85.54,9.69,121.97,20.47,35.39,60.63,62.47,102.29,61.42,52.68-1.28,105.82,2.56,158.66,2.56,36.81.87,73.77,1.73,110.36-2.39,15.29-1.73,30.71-4.39,44.58-11.09,26.01-12.6,48.12-34.77,55.44-63.25,5.87-23.38,2.05-48.13-10.61-68.65-7.75-12.44-18.6-22.93-24.75-36.24-8.25-17.91-7-38.49-9.42-58.04-3.28-26.04-13.24-50.79-28.92-71.83-9.46-12.6-21.29-24.04-35.87-30.27-10.04-4.29-21-5.95-31.85-7.22-34.98-4.04-70.93-4.13-104.92,5.21-1.46.41-2.94.83-4.44,1.28Z"></path><g id="monitor"><rect class="cls-16" x="226.02" y="348.91" width="85.74" height="44.96"></rect><rect class="cls-1" x="226.02" y="348.91" width="85.74" height="44.96"></rect><path class="cls-14" d="M410.45,197.39v127.65c.04,14.84-11.97,26.9-26.81,26.93-.02,0-.04,0-.06,0h-237.64c-14.84,0-26.87-12.03-26.87-26.87,0-.02,0-.04,0-.06v-127.65c0-14.84,12.03-26.87,26.87-26.87h237.59c14.84-.03,26.89,11.98,26.92,26.82,0,.02,0,.03,0,.05Z"></path><path class="cls-5" d="M410.45,197.39v127.65c.04,14.84-11.97,26.9-26.81,26.93-.02,0-.04,0-.06,0h-237.64c-14.84,0-26.87-12.03-26.87-26.87,0-.02,0-.04,0-.06v-127.65c0-14.84,12.03-26.87,26.87-26.87h237.59c14.84-.03,26.89,11.98,26.92,26.82,0,.02,0,.03,0,.05Z"></path><path class="cls-16" d="M410.45,316.08v8.96c.04,14.84-11.97,26.9-26.81,26.93-.02,0-.04,0-.06,0h-237.64c-14.84,0-26.87-12.03-26.87-26.87,0-.02,0-.04,0-.06v-8.96h291.38Z"></path><rect class="cls-16" x="209.08" y="389.56" width="117.09" height="8.65"></rect></g><g id="characters"><path class="cls-10" d="M398.3,250.42s-8,26.23-5.59,31.92,28.15,30.38,28.15,30.38l6.64-5.51-19.44-27.92s7.4-29.06,1.19-36.88c-6.21-7.82-10.95,8.01-10.95,8.01Z"></path><path class="cls-11" d="M409.86,237.91c4.63,3.47,8.3,8.08,10.65,13.37,3.84,8.71-2.21,29.3-2.21,29.3l25.83,13.83-3.29,8.96s-31.27-11.52-34.8-15.75-7.91-33.63-7.91-33.63l11.73-16.08Z"></path><path class="cls-15" d="M370.84,208.9l-10.42-4.04c-.82-.36-1.68-.63-2.56-.82-.91-.15-1.83-.12-2.74-.19-2.26-.41-4.47-1.03-6.62-1.86-.91-.22-1.77-.59-2.56-1.09-.78-.5-1.34-1.28-1.56-2.18-.19-1.66.79-3.23,2.37-3.77,1.56-.47,3.25-.33,4.71.4,2,.9,3.99,1.48,5.98,2.41,2.41,1.11,4.84,2.19,7.28,3.25,6.72,2.97,14.08,4.22,21.41,3.65,1.89.95,3.9,5.89,4.35,7.96-1.13.28-14.41-1.66-19.64-3.71Z"></path><path class="cls-15" d="M174.91,212.88l11.17.19c.92-.02,1.84.06,2.74.23.9.2,1.73.59,2.56.86,2.72.82,5.65.51,8.14-.84,1.87-1.04,3.45-2.66,5.53-3.24.42-.06.82-.22,1.15-.49.4-.5.4-1.21,0-1.71-.39-.49-.93-.84-1.54-1.01-2.2-.61-4.53-.56-6.69.15-1.36.31-2.76.48-4.16.49-3.44.2-6.88.31-10.34.38-7.31.19-14.55-1.43-21.07-4.72-2.11.17-5.85,3.98-7.05,5.72.91.68,13.92,3.89,19.56,3.99Z"></path><path class="cls-16" d="M162.16,201.49c.31.2.52.52.58.88-.05.33-.24.63-.51.83l-4.41,4.16c-.63.68-1.4,1.21-2.26,1.54-.95.19-1.93.13-2.84-.18-4.41-1.12-8.65-2.84-12.59-5.12-1.28-.68-2.45-1.57-3.45-2.62-1.01-1.07-1.57-2.48-1.55-3.95.15-1.61,1.03-3.07,2.39-3.94,3.03-2.05,6.08-1.45,9.26-.29,3.55,1.28,6.95,2.94,10.13,4.95,1.83,1.14,3.58,2.39,5.26,3.75Z"></path><path class="cls-14" d="M379.01,204.76v130.28c0,3.99-3.24,7.22-7.23,7.23h-194.27c-3.99,0-7.22-3.24-7.23-7.23v-130.28c0-3.99,3.22-7.22,7.2-7.23,0,0,.02,0,.03,0h194.27c3.99,0,7.22,3.22,7.23,7.2v.03Z"></path><path class="cls-16" d="M379.01,204.76v2.39h-208.73v-2.39c0-3.99,3.22-7.22,7.2-7.23,0,0,.02,0,.03,0h194.27c3.99,0,7.22,3.22,7.23,7.2v.03Z"></path><path class="cls-15" d="M123.08,236.51s-3.76,9.16-8.04,9.43-39.32-2.89-39.32-2.89l-1.01-4.18s22.12-3.57,26.87-2.37c2.44.64,4.91,1.16,7.41,1.56l3.17-2.35,10.91.81Z"></path><path class="cls-6" d="M123.08,236.51s-3.76,9.16-8.04,9.43-39.32-2.89-39.32-2.89l-1.01-4.18s22.12-3.57,26.87-2.37c2.44.64,4.91,1.16,7.41,1.56l3.17-2.35,10.91.81Z"></path><path class="cls-15" d="M133.27,236.81c1.36,1.97,1.36,4.58,0,6.55-2.32,3.47-42.98,23.51-42.98,23.51l-1.93-4.43s21.36-19.46,26.19-19.85c2.21.07,4.06-1.66,4.14-3.87,0-.29-.01-.59-.07-.88l14.65-1.04Z"></path><path class="cls-15" d="M146.95,217.01s.35,4.22,5.98,6.24,29.49,0,29.49,0c2.47,0,4.91,1.94,7.33,1.39s4.5-3.1,3.65-5.41c-.51-1.17-1.5-2.06-2.71-2.46-1.21-.38-2.47-.58-3.74-.59-2.19-.28-4.42-.06-6.51.65-.83.47-1.68.9-2.56,1.28-1.03.25-2.09.34-3.15.26l-12.96-.4c-2.5-.08-5.46-.42-6.62-2.64-.4-.75-.58-1.71-1.28-2.15-.49-.23-1.04-.28-1.56-.15-2.47.38-3.58,2.34-5.36,3.97Z"></path><path class="cls-16" d="M145.13,216.25c.2.25.45.45.73.6.34.15.72.2,1.09.17,2.5-.28,4.9-1.08,7.06-2.37.13-.05.24-.14.29-.27.04-.09.04-.2,0-.29l-2.56-8.55c-.22-.93-.63-1.8-1.2-2.56-.89-.94-2.17-1.42-3.45-1.28-1.26.17-2.46.65-3.49,1.39-1.09.68-1.98,1.64-2.56,2.79-.86,1.87,0,3.35.72,5.05.8,1.96,1.95,3.75,3.38,5.31Z"></path><path class="cls-15" d="M163.79,189.07c-.04.43-.04.85,0,1.28.08.4.02.81-.19,1.16-.28.32-.77.32-1.16.47-1.28.46-1.55,2.3-2.78,2.88-.4.17-.84.25-1.28.23-1.35.13-2.69-.37-3.63-1.34-.23-.28-.54-.65-.86-.49s-.2.23-.28.37c-.9,1.96-3.49,3.7-5.43,2.06-1.13-1.17-1.89-2.64-2.19-4.24-.51-1.78.36-3.65,1.15-5.23.85-1.75,1.82-3.44,2.92-5.04,1.73-2.44,4.09-4.71,7.05-5.12,2.47-.24,4.92.71,6.58,2.56.82.9,1.38,2.01,1.6,3.21.18.62.23,1.28.14,1.92-.17.79-.4,1.56-.69,2.32-.33.83-.6,1.69-.79,2.56-.12.13-.14.28-.15.44Z"></path><path class="cls-16" d="M143.2,209.95c-.47.26-.95.48-1.46.65-2.56.95-5.66,1.16-7.59,2.99-1.21,1.4-1.9,3.18-1.96,5.03-.72,6.42.2,12.92,2.67,18.89-1.41.31-2.83.52-4.26.65-5.16.38-10.35.11-15.44-.81-6.53-1.01-13.01-2.44-19.62-2.73,2.06-1.86,3.07-4.57,4.35-7.02,4.7-9.08,13.37-15.29,20.87-22.25,3.45-3.21,6.72-6.64,10.45-9.53,1.85-1.55,3.98-2.74,6.27-3.51,6.27-1.84,10.56,2.48,11.36,8.41.58,4.47-2.03,7.13-5.66,9.23Z"></path><path class="cls-13" d="M165.86,181.49c-.23.63-1.19,2.85-2.14,1.69-.08-.09-.13-.2-.24-.24s-.28,0-.41.15c-2.88,2.25-6.94,2.2-9.76-.13l-.32.45-2.44,3.39c.28-.68-.74-1.28-1.39-.95-.61.42-1.01,1.09-1.09,1.83-.24,1.28-.62,2.54-1.14,3.74-.53,1.22-1.56,2.15-2.83,2.56-1.28.32-2.65-.14-3.84.23-1.88.54-2.79,2.56-3.92,4.17-2.71,3.84-7.68,5.62-12.33,5.59-1.08.02-2.15-.11-3.2-.37-2.53-.7-4.6-2.5-5.63-4.91-.15-.36-.27-.73-.36-1.11-.73-2.96.37-6.08,2.79-7.93,1.35-.69,2.64-1.51,3.84-2.43.9-1.23,1.68-2.54,2.34-3.92,1.71-2.24,4.26-3.7,7.06-4.03,2.77-.31,5.56-.46,8.34-.47,1.54,0,3.05-.44,4.34-1.28,1.28-.99,1.98-2.64,3.21-3.74,1.09-.86,2.36-1.47,3.71-1.77,3.56-.96,7.49-1.28,10.81.29,2.37,1.1,4.11,3.21,4.75,5.75.29,1.14.23,2.33-.15,3.44Z"></path><path class="cls-16" d="M87.33,261.3c-1.47.23-2.89.7-4.2,1.41-.6.23-1.13.6-1.55,1.09-.39.65-.58,1.39-.55,2.15-.13,4.13.81,8.22,2.74,11.87.1.24.27.46.47.63.32.2.71.26,1.07.17,1.32-.27,2.45-1.11,3.08-2.3.62-1.18.96-2.5.97-3.84-.02-.8.07-1.6.24-2.38.37-1.2,1.28-2.14,1.8-3.3,1.34-3.25-.77-5.89-4.09-5.49Z"></path><path class="cls-16" d="M77.35,237.73c-1.39-.52-2.87-.78-4.35-.78-.64-.09-1.29-.02-1.89.2-.65.38-1.18.95-1.51,1.63-2.1,3.56-3.23,7.59-3.29,11.72-.03.27.01.54.12.79.19.32.5.55.86.65,1.3.41,2.7.21,3.84-.54,1.1-.75,2.01-1.74,2.66-2.9.37-.71.83-1.37,1.36-1.97.91-.88,2.19-1.28,3.17-2.03,2.71-2.15,2.19-5.46-.96-6.77Z"></path><path class="cls-16" d="M409.34,214.43c-.81,1.23-2.07,2.09-3.51,2.42-1.42.31-2.89.39-4.34.23-.59,0-1.16-.09-1.75-.15-2.48-.23-4.94-.66-7.36-1.28-1.42-.37-2.82-.81-4.2-1.28-.93-.26-1.78-.75-2.46-1.43-.54-.76-.89-1.64-1.02-2.56-.12-.5-.22-.99-.33-1.48l-1-4.44c-.24-.47-.05-1.05.42-1.29.19-.1.4-.13.61-.09,4.4-.41,8.84-.27,13.2.44,1.5.24,2.98.55,4.44.92,3.28.84,6.14,2.05,7.51,5.44.63,1.48.55,3.16-.22,4.57Z"></path><path class="cls-16" d="M422.56,251.46c-.24.45-.58.84-1,1.14-3.65,2.94-8.62,3.84-13.29,3.37-2.17-.22-4.31-.65-6.4-1.28-2.42-.69-4.79-1.56-7.14-2.43-.1-2.45.24-4.9,1-7.23,1.07-4.68,1.66-10.24.33-14.91l-.12-.36c-.75-2.43-2.12-4.64-2.87-7.08-.68-2.29-.94-4.69-.77-7.08.1-1.74.41-3.46.92-5.12.5-1.66,1.22-3.24,2.15-4.7.53-.94,1.26-1.74,2.15-2.35h.09c1.58-.67,3.33-.8,4.99-.36,4.03.61,8.07,1.45,10.62,4.9,2.55,3.45,3.28,6.6,4.15,10.91,2.03,10.24,4.75,20.38,5.35,30.85.08.58.02,1.16-.17,1.71Z"></path><path class="cls-4" d="M409.18,231.87c-.62.43-1.16.95-1.63,1.55-.28.57-.44,1.19-.45,1.83-.43,4.8-.38,9.62.17,14.41.18,1.52.28,3.37-.93,4.31-.76.48-1.66.71-2.56.64h-1.91c-2.42-.69-4.79-1.56-7.14-2.43-.1-2.45.24-4.9,1-7.23,1.07-4.68,1.66-10.24.33-14.91l-.12-.36c-.75-2.43-2.12-4.64-2.87-7.08-.68-2.29-.94-4.69-.77-7.08-1.42-.37-2.82-.81-4.2-1.28-.93-.26-1.78-.75-2.46-1.43-.54-.76-.89-1.64-1.02-2.56-.12-.5-.22-.99-.33-1.48l.23-.63c2.62.29,5.2.9,7.68,1.82,2.45,1,4.51,2.77,5.87,5.04l1.36-.68c.08.84.14,1.69.23,2.56s.15,1.84.24,2.75c0,.44.11.88.31,1.28.29.39.66.69,1.1.9,1.83,1.04,3.84,2.11,5.92,1.6,2.09-.51,2.76-2.11,3.84-3.53.3,1.55.46,3.13.46,4.71.17,2.69-.37,5.58-2.37,7.28Z"></path><path class="cls-15" d="M408.38,223.62c.05.56-.14,1.11-.52,1.51l-5.53,6.74c-.3.4-.66.76-1.07,1.04-.48.23-.99.36-1.52.38-3.95.29-7.81-1.28-11.4-2.92-2.86-1.52-5.86-2.78-8.96-3.75-2.16-.58-4.48-.69-6.72-1.15-2.44-.29-5.12,1.28-7.43.51s-4.11-3.62-2.98-5.81c.64-1.11,1.74-1.88,2.99-2.12,1.27-.24,2.56-.29,3.84-.14,2.21-.01,4.4.48,6.4,1.43,1.4.85,2.9,1.52,4.47,2.01,1.88.59,3.8,1.05,5.75,1.38,3.92.54,7.8,1.36,11.61,2.46.19.09.4.09.59,0,.16-.13.27-.31.31-.51.6-2.26,2.83-6.72,5.76-5.81,1.25.45,2.33,1.3,3.07,2.41.63.66,1.1,1.47,1.37,2.34Z"></path><path class="cls-16" d="M410.53,223.07c-.24.2-.52.36-.82.47-.36.09-.74.09-1.1,0-2.45-.57-4.74-1.66-6.73-3.2-.12-.08-.24-.17-.27-.29,0-.1.02-.2.06-.29l3.51-8.18c.5-1.15,1.06-2.26,1.63-3.38.23-.57.61-1.07,1.09-1.46.5-.26,1.06-.38,1.63-.36.51-.02,1.02.04,1.51.18.87.4,1.6,1.05,2.11,1.86.49.57.89,1.21,1.18,1.91.21.64.29,1.3.26,1.97-.1,2.16-.62,4.28-1.52,6.24-.55,1.29-1.29,3.48-2.52,4.53Z"></path><path class="cls-15" d="M390.74,186.65c-.68,1.66-.97,3.48-1.66,5.12-.18.38-.32.77-.41,1.18-.08.42.03.85.29,1.18.41.41,1.14.42,1.47.9.15.24.23.5.24.78l.33,2.35c.02.29.09.57.23.83.2.26.47.47.78.6,1.45.72,3.05,1.09,4.67,1.07.35.86.4,1.81.12,2.7-.11.77-.09,1.56.06,2.33.01.11.06.22.13.31.1.07.22.11.35.1.58,0,1.16-.1,1.71-.28l4.24-1.16c.77-.11,1.46-.53,1.91-1.16.16-.45.25-.92.26-1.39.2-.87.47-1.73.81-2.56.35-1.33.51-2.7.46-4.07.06-1.83,0-3.67-.19-5.49-.13-2.17-1.01-4.24-2.47-5.85-1.29-1.15-2.93-1.83-4.66-1.92-1.87-.21-3.77.09-5.49.86-1.47.76-2.6,2.03-3.17,3.58Z"></path><path class="cls-12" d="M389.01,179.41c-.3,1-.26,2.08.13,3.06.94,2.46,3.28,4.09,5.91,4.12.24-.02.48,0,.72.08.17.07.33.18.47.31l2.66,2.19c.59.42,1.1.95,1.5,1.56.34.68.56,1.43.63,2.19.13-.53.37-1.02.72-1.43.38-.4.97-.51,1.47-.28.28.22.47.53.54.88.31,1.36-.19,2.77-1.28,3.63.83.19,1.19,1.15,1.41,1.97l.95,3.58c.43-.07.78-.37.91-.78,0,.19.27.28.44.18.16-.11.27-.28.32-.46.87-2.32,1.68-4.67,2.42-7.02.84-2.23,1.27-4.59,1.28-6.97,0-.62-.14-1.23-.4-1.79-.27-.56-.79-.96-1.41-1.07-.11,0-.22-.04-.32-.09-.11-.11-.17-.26-.17-.41-.05-.84-.21-1.66-.47-2.46-.98-2.55-3.84-3.82-6.38-2.84-.09.04-.18.07-.27.11-.18.12-.4.16-.61.12-.13-.06-.24-.16-.32-.28-.73-.82-1.72-1.36-2.8-1.54-1.07-.18-2.16-.23-3.24-.15-.56-.02-1.11.06-1.64.23-.77.29-.93,1.04-1.54,1.46-.74.43-1.31,1.11-1.61,1.92Z"></path><path class="cls-11" d="M450.85,297.32c.41.5.22,1.28,0,1.87l-4.25,12.96c-.12.52-.35,1-.68,1.42-1.07.91-2.66.82-3.62-.2-.89-1.04-1.42-2.33-1.54-3.69-.54-3.23-.58-6.52-.12-9.76.2-1.42.78-4.86,2.56-5.28s6,2.11,7.64,2.69Z"></path><path class="cls-11" d="M431.65,314.14c0,.64-.52,1.15-1.05,1.54l-10.9,8.2c-.4.35-.87.61-1.37.77-1.4.17-2.68-.83-2.85-2.23,0,0,0,0,0-.01-.12-1.34.18-2.68.84-3.84,1.41-2.96,3.27-5.68,5.5-8.07.99-1.05,3.43-3.54,5.12-2.89s3.7,5.12,4.71,6.54Z"></path><circle class="cls-14" cx="177.34" cy="201.94" r="2.66"></circle><circle class="cls-14" cx="184.59" cy="201.94" r="2.66"></circle><circle class="cls-14" cx="191.83" cy="201.94" r="2.66"></circle><path class="cls-8" d="M134.83,237.51c-1.41.31-2.83.52-4.26.65l-9.29-.32c-3.52-.13-7.2-.31-10.24-2.11,3.84-1.45,6.19-5.4,7.36-9.34s1.47-8.13,2.84-12c.35-1.32,1.12-2.48,2.19-3.33.97-.52,2.04-.84,3.13-.95,4.42-.91,8.5-3.07,11.73-6.22-.35.33,2.3,4.62,2.56,5.12s.63,1.07.86,1.56c-2.56.95-5.66,1.16-7.59,2.99-1.21,1.4-1.9,3.18-1.96,5.03-.73,6.43.18,12.94,2.66,18.91Z"></path><path class="cls-9" d="M150.02,198.19c.3-.15.65-.15.95,0,3.33,1.37,6.52,3.09,9.49,5.12.18.1.31.25.38.44.06.28-.15.54-.37.73-1.18,1.11-2.38,2.19-3.62,3.22-2.11,1.77-3.65,1.84-4.59-.77-.36-.93-3.13-8.11-2.24-8.74Z"></path><rect class="cls-3" x="281.5" y="221.02" width="71.33" height="47.69"></rect><rect class="cls-2" x="194.5" y="282.19" width="158.34" height="40.34"></rect><path class="cls-7" d="M150.54,186.8c.28-.68-.74-1.28-1.39-.95-.61.42-1.01,1.09-1.09,1.83-.24,1.28-.62,2.54-1.14,3.74-.53,1.22-1.56,2.15-2.83,2.56-1.28.32-2.65-.14-3.84.23-1.88.54-2.79,2.56-3.92,4.17-2.71,3.84-7.68,5.62-12.33,5.59-1.08.02-2.15-.11-3.2-.37-2.53-.7-4.6-2.5-5.63-4.91,2.34.58,4.78.54,7.1-.12l.23-.99c7.06-.13,12.09-7.83,19.12-8.46-.46-.73-1.24-1.21-2.1-1.28,3.05-2.71,6.83-4.49,10.86-5.12.96-.16,1.93.12,2.66.75l-2.51,3.31Z"></path></g></svg>