<svg width="90" height="70" viewBox="0 0 90 70" fill="none" xmlns="http://www.w3.org/2000/svg">
<path d="M42.9191 10H16.7004C12.9964 10 10 13.2352 10 17.1843V36.2606C10 40.0312 12.7259 43.1548 16.201 43.4449V48.6881C16.201 49.3574 16.5755 49.9821 17.1581 50.2276C17.3454 50.3168 17.5535 50.3614 17.7616 50.3614C18.1778 50.3614 18.5731 50.183 18.8644 49.8706L24.8365 43.4672H40.3389V45.8991C40.3389 49.8706 43.3561 53.1058 47.06 53.1058H65.1635L71.1356 59.5091C71.4269 59.8215 71.843 60 72.2384 60C72.4465 60 72.6338 59.9554 72.8419 59.8661C73.4245 59.5984 73.799 58.996 73.799 58.3266V53.0611C77.2533 52.7711 80 49.6698 80 45.8768V26.8005C80 22.8291 76.9828 19.5939 73.2788 19.5939H49.6403V17.162C49.6403 13.2129 46.6231 10 42.9191 10ZM24.1706 40.1205C23.7545 40.1205 23.3591 40.299 23.0678 40.6113L19.3014 44.6497V41.7938C19.3014 40.8791 18.5939 40.1205 17.7408 40.1205H16.7004C14.7235 40.1205 13.1213 38.4025 13.1213 36.2829V17.2066C13.1213 15.087 14.7235 13.369 16.7004 13.369H42.9191C44.896 13.369 46.4982 15.087 46.4982 17.2066V36.2829C46.4982 38.4025 44.896 40.1205 42.9191 40.1205H24.1706ZM73.258 22.963C75.2348 22.963 76.8579 24.6809 76.8579 26.8228V45.8991C76.8579 48.0187 75.2556 49.759 73.258 49.759H72.2176C71.3644 49.759 70.657 50.5176 70.657 51.4324V54.2883L66.8906 50.2499C66.5993 49.9375 66.2039 49.759 65.7878 49.759H47.0392C45.0624 49.759 43.4394 48.041 43.4394 45.8991V43.4449C46.8936 43.1548 49.6195 40.0535 49.6195 36.2829V22.9853H73.258V22.963Z" fill="black"/>
<path d="M29.8507 33.4492C29.4345 33.4492 29.0391 33.6277 28.7478 33.9401C28.4565 34.2524 28.29 34.6763 28.29 35.1226C28.29 35.5688 28.4565 35.9927 28.7478 36.3051C29.0391 36.6174 29.4345 36.7959 29.8507 36.7959C30.2669 36.7959 30.6622 36.6174 30.9535 36.3051C31.2449 35.9927 31.4113 35.5688 31.4113 35.1226C31.4113 34.6763 31.2449 34.2524 30.9535 33.9401C30.6622 33.6277 30.2669 33.4492 29.8507 33.4492Z" fill="black"/>
<path d="M29.8093 16.6719C27.1458 16.6719 24.9609 18.9923 24.9609 21.8704V21.982C24.9609 22.8968 25.6684 23.6554 26.5216 23.6554C27.3747 23.6554 28.0822 22.8968 28.0822 21.982V21.8704C28.0822 20.8664 28.8521 20.0186 29.8093 20.0186C30.7665 20.0186 31.5364 20.8441 31.5364 21.8704C31.5364 22.8522 31.1827 23.7669 30.5376 24.4586C29.1018 25.9981 28.3111 28.0507 28.3111 30.2373C28.3111 31.152 29.0186 31.9106 29.8718 31.9106C30.7249 31.9106 31.4324 31.152 31.4324 30.2373C31.4324 28.9432 31.8902 27.7384 32.7433 26.8236C33.971 25.5072 34.6577 23.7446 34.6577 21.8704C34.6577 18.9923 32.4728 16.6719 29.8093 16.6719Z" fill="black"/>
</svg>
