<svg transform="scale(1)" id="_0655_Remote_Team_1" xmlns="http://www.w3.org/2000/svg" xmlns:xlink="http://www.w3.org/1999/xlink" viewBox="0 0 500 500" class="show_show__wrapper__graphic__5Waiy "><title>React</title><defs><style>.cls-1{fill:url(#linear-gradient);}.cls-1,.cls-2,.cls-3,.cls-4,.cls-5,.cls-6,.cls-7,.cls-8,.cls-9,.cls-10,.cls-11,.cls-12,.cls-13,.cls-14,.cls-15,.cls-16,.cls-17,.cls-18,.cls-19,.cls-20,.cls-21,.cls-22,.cls-23{stroke-width:0px;}.cls-2{isolation:isolate;opacity:.18;}.cls-2,.cls-22{fill:#000080;}.cls-3{fill:url(#linear-gradient-11);}.cls-4{fill:url(#linear-gradient-12);}.cls-5{fill:url(#linear-gradient-13);}.cls-6{fill:url(#linear-gradient-16);}.cls-7{fill:url(#linear-gradient-15);}.cls-8{fill:url(#linear-gradient-14);}.cls-9{fill:url(#linear-gradient-4);}.cls-10{fill:url(#linear-gradient-2);}.cls-11{fill:url(#linear-gradient-3);}.cls-12{fill:url(#linear-gradient-8);}.cls-13{fill:url(#linear-gradient-9);}.cls-14{fill:url(#linear-gradient-7);}.cls-15{fill:url(#linear-gradient-5);}.cls-16{fill:url(#linear-gradient-6);}.cls-17{fill:#231f20;}.cls-18{fill:#bb877e;}.cls-19{fill:#fff;}.cls-20{fill:#ffb4a3;}.cls-21{fill:#e79a8e;}.cls-23{fill:url(#linear-gradient-10);opacity:.32;}</style><linearGradient id="linear-gradient" x1="357.44" y1="385.39" x2="341.53" y2="101.58" gradientUnits="userSpaceOnUse"><stop offset="0" stop-color="#fff"></stop><stop offset="1" stop-color="#fff" stop-opacity="0"></stop></linearGradient><linearGradient id="linear-gradient-2" x1="130.44" y1="167.04" x2="124.92" y2="583.6" xlink:href="#linear-gradient"></linearGradient><linearGradient id="linear-gradient-3" x1="1989.99" y1="1422.37" x2="1991.41" y2="1504.4" gradientTransform="translate(-1786.02 -1231.23)" xlink:href="#linear-gradient"></linearGradient><linearGradient id="linear-gradient-4" x1="1988.26" y1="1385.71" x2="1997.26" y2="1604.81" gradientTransform="translate(-1786.02 -1231.23)" gradientUnits="userSpaceOnUse"><stop offset="0" stop-color="#000"></stop><stop offset=".08" stop-color="#000" stop-opacity=".69"></stop><stop offset=".21" stop-color="#000" stop-opacity=".32"></stop><stop offset="1" stop-color="#000" stop-opacity="0"></stop></linearGradient><linearGradient id="linear-gradient-5" x1="1991.82" y1="1443.27" x2="1989.7" y2="1490.65" gradientTransform="translate(-1786.02 -1231.23)" xlink:href="#linear-gradient"></linearGradient><linearGradient id="linear-gradient-6" x1="1999.16" y1="1462.96" x2="1980.72" y2="1421.63" gradientTransform="translate(-1786.02 -1231.23)" xlink:href="#linear-gradient"></linearGradient><linearGradient id="linear-gradient-7" x1="357.41" y1="343.25" x2="94.52" y2="361.76" gradientUnits="userSpaceOnUse"><stop offset="0" stop-color="#231f20"></stop><stop offset=".08" stop-color="#231f20" stop-opacity=".69"></stop><stop offset=".21" stop-color="#231f20" stop-opacity=".32"></stop><stop offset="1" stop-color="#231f20" stop-opacity="0"></stop></linearGradient><linearGradient id="linear-gradient-8" x1="-246.55" y1="12.33" x2="262.81" y2="527.1" xlink:href="#linear-gradient-7"></linearGradient><linearGradient id="linear-gradient-9" x1="141.25" y1="415.51" x2="146.54" y2="420.86" xlink:href="#linear-gradient-7"></linearGradient><linearGradient id="linear-gradient-10" x1="310.74" y1="347.22" x2="640.67" y2="521.1" xlink:href="#linear-gradient-7"></linearGradient><linearGradient id="linear-gradient-11" x1="429.57" y1="309.84" x2="239.9" y2="380.54" gradientTransform="translate(700.62 24.65) rotate(178.02) scale(1 -1)" xlink:href="#linear-gradient-7"></linearGradient><linearGradient id="linear-gradient-12" x1="279.07" y1="319.6" x2="428.44" y2="398.32" gradientTransform="translate(711.95 27.62) rotate(178.02) scale(.99 -.99)" xlink:href="#linear-gradient-7"></linearGradient><linearGradient id="linear-gradient-13" x1="167.25" y1="118.5" x2="168.37" y2="54.13" xlink:href="#linear-gradient-7"></linearGradient><linearGradient id="linear-gradient-14" x1="174.19" y1="118.62" x2="175.31" y2="54.25" xlink:href="#linear-gradient-7"></linearGradient><linearGradient id="linear-gradient-15" x1="276.17" y1="135.22" x2="199.98" y2="209.74" xlink:href="#linear-gradient-7"></linearGradient><linearGradient id="linear-gradient-16" x1="225.39" y1="84.68" x2="265.32" y2="145.64" gradientTransform="translate(357.98 -123.99) rotate(90)" xlink:href="#linear-gradient-7"></linearGradient></defs><path class="cls-2" id="background" d="M463.56,390.61c-5.66,8.75-12.06,16.87-19.01,24.1-31.09,32.39-73.87,52.01-117.94,60.54-44.08,8.53-89.6,6.6-134.09.62-31.42-4.22-62.8-10.51-92.06-22.69-26.98-11.24-60.57-29.86-74.48-56.71-19.09-36.83-17.3-81.73-7.06-120.86,5.08-19.4,12.74-37.77,22.08-55.48,9.56-18.13,12.47-34.57,14.89-54.86,3.66-30.7,13.56-60.65,28.93-87.47,5.34-9.32,11.44-18.38,19.6-25.35,10.03-8.56,22.58-13.48,34.99-17.95,16.37-5.9,33.02-11.29,50.24-13.78,26.91-3.89,54.33-.57,81.16,3.86,31.68,5.23,63.79,12.27,91.3,28.84,27.51,16.57,50.02,44.3,52.85,76.29.86,9.8-.1,19.72,1.34,29.45,3.88,26.17,24.06,46.34,41.34,66.36,41.17,47.71,39.55,113.21,5.95,165.09Z"></path><g id="box_3"><path class="cls-22" d="M455.27,265.96v150.63c0,13.8-11.19,24.99-24.99,24.99h-150.64c-13.8,0-24.98-11.19-24.98-24.99v-150.63c0-13.8,11.18-24.99,24.98-24.99h150.64c13.8,0,24.99,11.19,24.99,24.99Z"></path><path class="cls-1" d="M455.27,265.96v150.63c0,13.8-11.19,24.99-24.99,24.99h-150.64c-13.8,0-24.98-11.19-24.98-24.99v-150.63c0-13.8,11.18-24.99,24.98-24.99h150.64c13.8,0,24.99,11.19,24.99,24.99Z"></path></g><g id="box_2"><rect class="cls-22" x="39.24" y="230.87" width="178.32" height="178.32" rx="24.99" ry="24.99"></rect><path class="cls-10" d="M217.56,257.69v126.51c0,13.8-11.19,24.99-24.99,24.99H64.22c-13.8,0-24.98-11.19-24.98-24.99v-126.51c0-13.81,11.18-24.99,24.98-24.99h128.35c13.8,0,24.99,11.18,24.99,24.99Z"></path></g><path class="cls-22" id="box_1" d="M398.2,77.18v89.23c0,13.8-11.19,24.99-24.99,24.99H122.63c-13.8,0-24.99-11.19-24.99-24.99v-89.23c0-13.8,11.19-24.98,24.99-24.98h250.58c13.8,0,24.99,11.18,24.99,24.98Z"></path><g id="messages"><path class="cls-22" d="M239.16,216.2v37.63c0,2.11-1.71,3.83-3.83,3.83h-61.19c-2.11,0-3.83-1.71-3.83-3.83v-37.63c0-1.23.57-2.32,1.47-3.02.65-.51,1.46-.81,2.36-.81h61.19c1.11,0,2.12.48,2.82,1.24.63.68,1.01,1.59,1.01,2.59Z"></path><path class="cls-11" d="M239.16,216.2v37.63c0,2.11-1.71,3.83-3.83,3.83h-61.19c-2.11,0-3.83-1.71-3.83-3.83v-37.63c0-1.23.57-2.32,1.47-3.02.65-.51,1.46-.81,2.36-.81h61.19c1.11,0,2.12.48,2.82,1.24.63.68,1.01,1.59,1.01,2.59Z"></path><path class="cls-9" d="M239.13,215.76l-34.4,28.36-34.38-29.15c0-.83.76-1.95,1.65-1.95l65.29.16c.85,0,1.86,1.47,1.84,2.57Z"></path><polygon class="cls-15" points="204.96 229.5 174.14 257.67 233.39 257.67 204.96 229.5"></polygon><path class="cls-22" d="M238.14,213.61l-33.41,27.25-32.95-27.67c.65-.51,1.46-.81,2.36-.81h61.19c1.11,0,2.12.48,2.82,1.24Z"></path><path class="cls-16" d="M238.14,213.61l-33.41,27.25-32.95-27.67c.65-.51,1.46-.81,2.36-.81h61.19c1.11,0,2.12.48,2.82,1.24Z"></path></g><g id="line"><path class="cls-22" d="M424.59,241.87c-.83,0-1.5-.67-1.5-1.5v-.95c0-.83.67-1.5,1.5-1.5s1.5.67,1.5,1.5v.95c0,.83-.67,1.5-1.5,1.5ZM424.59,234.91c-.83,0-1.5-.67-1.5-1.5v-6c0-.83.67-1.5,1.5-1.5s1.5.67,1.5,1.5v6c0,.83-.67,1.5-1.5,1.5ZM424.59,222.91c-.83,0-1.5-.67-1.5-1.5v-6c0-.83.67-1.5,1.5-1.5s1.5.67,1.5,1.5v6c0,.83-.67,1.5-1.5,1.5ZM424.59,210.91c-.83,0-1.5-.67-1.5-1.5v-6c0-.83.67-1.5,1.5-1.5s1.5.67,1.5,1.5v6c0,.83-.67,1.5-1.5,1.5ZM424.59,198.91c-.83,0-1.5-.67-1.5-1.5v-6c0-.83.67-1.5,1.5-1.5s1.5.67,1.5,1.5v6c0,.83-.67,1.5-1.5,1.5ZM424.59,186.91c-.83,0-1.5-.67-1.5-1.5v-6c0-.83.67-1.5,1.5-1.5s1.5.67,1.5,1.5v6c0,.83-.67,1.5-1.5,1.5ZM424.59,174.91c-.83,0-1.5-.67-1.5-1.5v-6c0-.83.67-1.5,1.5-1.5s1.5.67,1.5,1.5v6c0,.83-.67,1.5-1.5,1.5ZM424.59,162.91c-.83,0-1.5-.67-1.5-1.5v-6c0-.83.67-1.5,1.5-1.5s1.5.67,1.5,1.5v6c0,.83-.67,1.5-1.5,1.5ZM424.59,150.91c-.83,0-1.5-.67-1.5-1.5v-6c0-.83.67-1.5,1.5-1.5s1.5.67,1.5,1.5v6c0,.83-.67,1.5-1.5,1.5ZM424.59,138.91c-.83,0-1.5-.67-1.5-1.5v-6c0-.83.67-1.5,1.5-1.5s1.5.67,1.5,1.5v6c0,.83-.67,1.5-1.5,1.5ZM424.59,126.91c-.83,0-1.5-.67-1.5-1.5v-2.11h-.89c-.83,0-1.5-.67-1.5-1.5s.67-1.5,1.5-1.5h3.89v5.11c0,.83-.67,1.5-1.5,1.5ZM416.2,123.3h-6c-.83,0-1.5-.67-1.5-1.5s.67-1.5,1.5-1.5h6c.83,0,1.5.67,1.5,1.5s-.67,1.5-1.5,1.5ZM404.2,123.3h-6c-.83,0-1.5-.67-1.5-1.5s.67-1.5,1.5-1.5h6c.83,0,1.5.67,1.5,1.5s-.67,1.5-1.5,1.5Z"></path></g><g id="character_3"><path class="cls-17" d="M88.73,251.32c-2.29-1.37-5.07-1.63-7.75-1.64-2.1,0-4.24.13-6.22.85-1.7.62-3.22,1.65-4.72,2.66-1.95,1.32-3.95,2.69-5.26,4.65-2.22,3.31-2.41,7.42.53,10.38-.42,3.11.58,6.38,2.66,8.73.74.84,1.97,1.59,2.9.98-1.3.97-1.74,2.76-1.64,4.39.1,1.62.64,3.19.89,4.8.75,4.84-1.39,10.02-5.33,12.93,1.11,1.66,3.04,2.74,5.04,2.81,2,.07,4-.87,5.22-2.45,1.97,1.33,4.77.8,6.62-.69,1.85-1.49,2.92-3.73,3.73-5.97,4.26.01,8.99-3.8,9.2-8.25.23-4.99-2.26-9.88-3.74-14.53-1.13-3.54-1.52-7.51.11-10.95,1.59-3.37,1.47-6.48-2.22-8.68Z"></path><path class="cls-22" d="M79.14,258.37c-1.01,2.37-1.06,5.24.29,7.44,1.04,1.69,2.78,2.82,4.55,3.72,1.6.81,3.4,1.49,5.15,1.13,6.73-1.39,6.83-12.14,3.91-16.79-4.08-6.48-11.66-.75-13.89,4.5Z"></path><path class="cls-22" d="M157.82,350.15c-1.08,6.85-5.82,12.43-9.37,18.39-7.19,12.08-9.65,26.88-6.77,40.65h-64.27c.16-3.96-.09-7.93-.75-11.84-2.87-17.02-10.53-32.26-11.36-49.77-.66-13.85,6.56-32.18,19.09-39.04,8.29-4.54,17.54-7.82,26.99-7.5,15.75.53,25.17,13.12,35.22,23.58,6.68,6.95,12.72,16,11.22,25.53Z"></path><path class="cls-14" d="M157.82,350.15c-1.08,6.85-5.82,12.43-9.37,18.39-7.19,12.08-9.65,26.88-6.77,40.65.07.39.16.77.25,1.16.6,2.6,1.39,5.17,2.45,7.63-1.02-2.23-2.46-5.71-3.08-8.79h-63.89c.16-3.96-.09-7.93-.75-11.84-2.87-17.02-10.53-32.26-11.36-49.77-.66-13.85,6.56-32.18,19.09-39.04,8.29-4.54,17.54-7.82,26.99-7.5,15.75.53,25.17,13.12,35.22,23.58,6.68,6.95,12.72,16,11.22,25.53Z"></path><path class="cls-12" d="M141.3,409.19h-35.03c-13.11-20.39-24.37-59.05-24.73-59.83,1.01.75,67.95,16.76,65.72,21.29-10.42,21.17-6.21,37.31-5.96,38.54Z"></path><path class="cls-13" d="M145.19,419.71c-.11-.22-.25-.51-.4-.84.12.29.25.57.4.84Z"></path><path class="cls-20" d="M103.22,311.29c4.53,2.61,9.7,3.94,14.27,6.48,2.52,1.42,4.89,3.19,7.66,4.01,2.77.81,6.2.35,7.85-2,.76-1.1,1.05-2.44,1.06-3.76.03-1.95-.48-3.91-1.51-5.57-1.6-2.62-4.29-4.44-5.78-7.13-1.37-2.48-1.54-5.5-.98-8.28.49-2.5,2.24-3.3,4.33-3.67,1.8-.33,3.83-.3,5.53-.72,2.54-.61,4.75-2.14,6.26-4.26,1.91-2.81,1.62-6.67,1.04-10.1-.64-4.31-1.5-8.66-2.52-12.81-.9-3.71-2.01-7.4-3.23-11.02-.82-2.32-1.34-4.13-3.65-5.3-6.25-2.78-13.18-3.71-19.96-2.7-5.11.66-10.45,2.65-13.34,6.92-1.91,3.26-2.8,7.03-2.51,10.8.42,5.52,1.31,9.61,3.78,14.5,2.25,4.48,6.17,8.48,6.65,13.65.42,4.4-1.98,8.76-5.43,11.51-1.32,1.04-2.88,2.03-3.29,3.65-.63,2.41,1.63,4.56,3.78,5.79Z"></path><path class="cls-17" d="M130.25,254.69c1.11.07,2.23.06,3.33.2,1.4.17,3.91.57,4.85,1.76.71.9.88,2.68,1.2,3.75,3.49-2.23,5.76-6.27,5.86-10.42s-2-8.28-5.39-10.67c-.73-.51-1.53-.97-2.06-1.69-.9-1.22-.79-2.88-1.04-4.38-.56-3.35-3.12-6.13-6.17-7.62-3.05-1.49-6.53-1.85-9.93-1.76-3.66.1-7.4.73-10.58,2.54-3.18,1.82-5.75,4.97-6.19,8.61-4.19-.79-8.68.58-11.86,3.43s-5.01,7.07-5.16,11.33c-.29,8.52-2,18.92,4.12,25.95,2.58,2.96,6.15,4.83,9.44,6.99,3.08,2.03,5.96,4.36,8.59,6.95,2.69-1.66,3.66-5.59,2.07-8.32-2.59-4.42-10.03-4.85-11.35-9.79-.21-.79-.22-1.67.17-2.38.82-1.49,2.92-1.66,4.57-1.25,2.18.54,3.93,1.78,5.56,3.25,1.58-2.81-.69-4.27-1.17-6.8-.11-.58.08-5.53.69-5.82,2.64-1.22,4.68-3.68,5.4-6.49,2.54.29,5.17-1.36,6.01-3.78,1.21,3.19,4.18,5.64,7.54,6.23.49.09.98.13,1.48.17Z"></path><path class="cls-20" d="M103.04,324.65c3.66,4.02,18.28,18.95,24.13,22.48,6.53-14.64,7.87-24.65,8.18-40.51.05-2.54.09-5.16-.85-7.52-.53-1.32-1.32-2.9-.43-4.01.69-.86,1.98-.83,3.08-.93,2.72-.25,5.29-1.88,6.66-4.24,1.15-1.98,1.47-4.34,2.39-6.43.17-.39.37-.79.71-1.05.99-.78,2.53.07,3.06,1.21.53,1.14.47,2.47.78,3.69.83,3.29,4.11,5.3,5.87,8.2,1.37,2.26,1.78,5.03,1.41,7.64-.23,1.66-.77,3.27-1.49,4.78-.67,1.4-1.71,2.12-2.53,3.35-1.85,2.79-1.85,6.99-2.04,10.2-.33,5.8-.66,11.61-.99,17.41-.62,11.02,1.24,32.66-12.47,35.92-8.74,2.08-17.81-1.28-25.86-5.25-9.19-4.53-17.95-9.94-26.12-16.12-5.74-4.34-12.45-10.21-12.93-17.82-.42-6.68,3.24-13.94,9.22-16.99,8.2-4.1,14.8.05,20.21,5.98Z"></path><path class="cls-21" d="M126.78,303.31c-1.37-2.48-1.54-5.5-.98-8.28.49-2.5,2.24-3.3,4.33-3.67v-.02s-9.58-.98-11.55-3.53c0,0-1.12,11.23,8.21,15.5Z"></path></g><g id="character_2"><g id="character_1"><path class="cls-22" d="M435.94,441.58h-74.56c-.15-9.68-1.59-107.38,2.06-111.6,1.72-1.98,20.54-8.92,20.54-8.92,0,0,8.22,12.34,28.95,2.06,0,0,12.54,3.25,21.49,9.77,4.64,3.38,1.52,108.69,1.52,108.69Z"></path><path class="cls-23" d="M435.94,441.58h-14.05c-.06-3.9-.35-8.63-1.29-11.33-1.81-5.18-45.03-14.34-45.03-14.34l9.37-4.86s28.75,2.14,36.56-2.28c7.81-4.41,14.65-31.25,14.65-31.25l-1.11,25.33.9,38.73Z"></path><path class="cls-22" d="M363.44,330c0,.61-4.46,4.65-5.06,5.5-1.98,2.82-3.64,5.85-5.05,8.99-2.79,6.18-4.63,12.75-6.21,19.33-2.84,11.84-5.03,24.06-10.87,34.74-7.29-1.28-14.59-2.56-21.88-3.83-1.48,6.32-3.39,12.54-5.72,18.61,9.79,2.82,19.59,5.63,29.38,8.45,1.95.56,4.1,1.11,5.94.25,1.29-.6,2.19-1.8,3.01-2.97,7.87-11.24,13.55-24.01,16.63-37.39,1.52-6.62.19-11.74-.17-18.18-.22-4.01,0-8.1,0-12.12,0-7.12,0-14.25,0-21.37Z"></path><path class="cls-20" d="M310.35,393.55c-.96-.34-1.9-1.53-2.77-2.09-1.29-.83-2.39-1.3-3.53-2.4-2.85-2.75-5.91-5.22-9.23-7.33-.51-.32-1.2-.62-1.64-.22-.2.18-.29.47-.33.74-.28,1.95,1.34,3.55,2.47,5.15.68.97,2.27,3.21,1.65,4.52-.64,1.34-4.13,1.22-5.44,1.28-4.51.19-8.99-.67-13.46-1.13-1.08-.11-2.48,0-2.82,1.08-.35,1.11.79,2.08,1.79,2.59,3.49,1.8,7.32,2.88,11.21,3.15-4.03-.48-8.05-.96-12.08-1.44-.43-.05-.9-.09-1.25.18-.73.56-.2,1.79.46,2.43,2.01,1.96,4.8,2.8,7.53,3.24,2.73.43,5.51.52,8.17,1.28-2.34-.43-4.7-.7-7.07-.81-1.41-.07-2.93-.05-4.11.75-.26.17-.5.4-.6.7-.27.87.77,1.52,1.61,1.77,3.69,1.1,7.54,1.66,11.38,1.66-2.29.05-4.71.15-6.62,1.45-.26.18-.53.4-.58.72-.12.7.76,1.07,1.45,1.15,5.62.66,11.34.42,16.89-.71,2.93-.6,6.09-1.87,7.11-5.08,2.01-6.33,2.45-11.7-.18-12.62Z"></path><path class="cls-19" d="M311.02,390.99l-7.16,21.44,6.09,3.49s9.43-19.77,9.87-20.74c.45-.97-8.81-4.19-8.81-4.19Z"></path><path class="cls-17" d="M379.93,267.62c1.22-3.41,2.77-6.29,4.63-8.62h0s-5.86-5.4-7.99,7.54c-2.12,12.94-3.94,13.62-.75,21.93l1.85-2.37c.44-6.91-.57-10.57,2.26-18.48Z"></path><path class="cls-20" d="M408.82,298.13l4.1,24.99s-9.19,13.46-20.81,11.46c-11.62-2-9.04-9.53-9.04-9.53l3.43-18.88s8.89,1.72,22.33-8.03Z"></path><path class="cls-18" d="M410.26,306.91l-1.44-8.78c-13.44,9.75-20.39,5.61-20.39,5.61l-3.24,11.34c1.97,1.92,4.25,3.12,6.91,3.31,6.43.46,12.94-4.57,18.17-11.48Z"></path><path class="cls-19" d="M412.43,320.11l12.16,5.73s-19.18,20.27-25.03,19.85c0,0-5.52-10.25-10.69-11.87l23.57-13.71Z"></path><path class="cls-19" d="M384.21,323.59s1.16,4.89,4.65,10.23c-1.14.45-8.58,5.63-8.71,9.15,0,0-7.39-16.73-4.34-19.37.82-.71,7.87-3.49,7.87-3.49l.52,3.48Z"></path><path class="cls-20" d="M422.57,285.88c-4.67,13.1-24.93,32.89-38.03,28.22-13.1-4.67-9.28-33.38-4.61-46.48,4.67-13.1,14.28-18.57,27.37-13.91,13.1,4.67,19.93,19.07,15.26,32.16Z"></path><path class="cls-17" d="M418.36,257.65s-2.06-8.21-15-10.33c-12.94-2.12-18.3,5.93-21.23,3.64-2.92-2.29-10.42,1.27-7.96,8.37,2.45,7.1,8.69,10.57,18,8.91,9.31-1.66,19.65.78,21.07,3.77.69,1.46-.59,4.18-1.07,5.53-1.07,3.08-2.49,5.99-3.37,9.13-.22.76-.43,1.6-.09,2.32.67-.02,1.22-.53,1.62-1.07,1.03-1.41,2.85-4.2,4.89-4,4.81.47,2.4,10.86-2.12,12.94-3.5,1.61-6.37,9.67-6.37,9.67,0,0,17.42-5.73,21.12-23.1,3.7-17.36-.96-25.25-9.49-25.8Z"></path><path class="cls-19" d="M384.94,350.41l-1.48-5.21c-.4-1.42-1.72-2.38-3.19-2.33l-4.42.15s-.19-3.67-5.1-3.61c-4.91.06-4.47,4.61-4.47,4.61l-3.27.29c-1.96.17-3.31,2.06-2.82,3.97l.63,2.48,24.14-.36Z"></path><path class="cls-22" d="M364.38,417.29l42.47-1.47c2.71-.09,4.51-2.36,4.02-5.06l-10.85-60.1c-.49-2.7-3.08-4.81-5.78-4.72l-42.47,1.47c-2.71.09-4.51,2.36-4.02,5.06l10.85,60.1c.49,2.7,3.08,4.81,5.78,4.72Z"></path><path class="cls-3" d="M364.38,417.29l42.47-1.47c2.71-.09,4.51-2.36,4.02-5.06l-10.85-60.1c-.49-2.7-3.08-4.81-5.78-4.72l-42.47,1.47c-2.71.09-4.51,2.36-4.02,5.06l10.85,60.1c.49,2.7,3.08,4.81,5.78,4.72Z"></path><path class="cls-4" d="M407.87,411.09l-10.89-60.54c-.46-2.58-2.93-4.6-5.5-4.51l3.04-.1c2.57-.09,5.04,1.93,5.5,4.51l10.89,60.54c.46,2.58-1.25,4.74-3.82,4.83l-3.04.1c2.57-.09,4.29-2.25,3.82-4.83Z"></path></g><path class="cls-22" d="M433.23,331.69s6.59,4.32,11.72,12.19c5.13,7.87,17.94,66.7,14.03,84.58-1.65,7.56-55.67-11.54-55.67-11.54,0,0-.98-11.77,5.37-16.08,0,0,21.52,3.72,23.72,1.44,2.2-2.28.82-70.58.82-70.58Z"></path><path class="cls-20" d="M406.25,397.55c-.96-.34-1.9-1.53-2.77-2.09-1.29-.83-2.39-1.3-3.53-2.4-2.85-2.75-5.91-5.22-9.23-7.33-.51-.32-1.2-.62-1.64-.22-.2.18-.29.47-.33.74-.28,1.95,1.34,3.55,2.47,5.15.68.97,2.27,3.21,1.65,4.52-.64,1.34-4.13,1.22-5.44,1.28-4.51.19-8.99-.67-13.46-1.13-1.08-.11-2.48,0-2.82,1.08-.35,1.11.79,2.08,1.79,2.59,3.49,1.8,7.32,2.88,11.21,3.15-4.03-.48-8.05-.96-12.08-1.44-.43-.05-.9-.09-1.25.18-.73.56-.2,1.79.46,2.43,2.01,1.96,4.8,2.8,7.53,3.24,2.73.43,5.51.52,8.17,1.28-2.34-.43-4.7-.7-7.07-.81-1.41-.07-2.93-.05-4.11.75-.26.17-.5.4-.6.7-.27.87.77,1.52,1.61,1.77,3.69,1.1,7.54,1.66,11.38,1.66-2.29.05-4.71.15-6.62,1.45-.26.18-.53.4-.58.72-.12.7.76,1.07,1.45,1.15,5.62.66,11.34.42,16.89-.71,2.93-.6,6.09-1.87,7.11-5.08,2.01-6.33,2.45-11.7-.18-12.62Z"></path><path class="cls-19" d="M406.88,395.45l-7.16,21.44,6.09,3.49s9.43-19.77,9.87-20.74c.45-.97-8.81-4.19-8.81-4.19Z"></path></g><g id="bubble_2"><rect class="cls-19" x="270.09" y="228.42" width="77.13" height="52.53" rx="13.72" ry="13.72"></rect><path class="cls-19" d="M303.85,276.76s-2.08,14.23,22.47,16.02c0,0-13.95-4.81-14.7-16.02h-7.78Z"></path><circle class="cls-22" cx="288.75" cy="254.69" r="3.53"></circle><circle class="cls-22" cx="307.34" cy="254.69" r="3.53"></circle><circle class="cls-22" cx="325.94" cy="254.69" r="3.53"></circle></g><g id="bubble_1"><rect class="cls-5" x="129.56" y="41.86" width="77.13" height="52.53" rx="13.72" ry="13.72"></rect><path class="cls-8" d="M163.32,90.19s-2.08,14.23,22.47,16.02c0,0-13.95-4.81-14.7-16.02h-7.78Z"></path><rect class="cls-19" x="131.79" y="41.86" width="77.13" height="52.53" rx="13.72" ry="13.72"></rect><path class="cls-19" d="M165.56,90.19s-2.08,14.23,22.47,16.02c0,0-13.95-4.81-14.7-16.02h-7.78Z"></path><rect class="cls-22" x="143.82" y="54.92" width="51.53" height="3.82" rx="1.91" ry="1.91"></rect><rect class="cls-22" x="143.82" y="63.85" width="51.53" height="3.82" rx="1.91" ry="1.91"></rect><rect class="cls-22" x="143.82" y="73.66" width="51.53" height="3.82" rx="1.91" ry="1.91"></rect></g><g id="character_1-2"><path class="cls-17" d="M186.24,173.8c0,6.37-1.28,12.36-3.52,17.6h-52.5c-2.24-5.24-3.52-11.23-3.52-17.6,0-20.58,3.19-35.04,19.63-35.04s39.91,14.46,39.91,35.04Z"></path><g id="character_1-3"><g id="character_1-4"><path class="cls-19" d="M263.99,191.4h-105.53c7.12-19.94,18.09-37.8,31.65-52.01,7.14-7.48,15-13.96,23.39-19.21,9.24-5.77,16.37-5.2,26.48-2.69,6.32,1.57,12.51,4.57,17,10.38,6.41,8.29,8.01,20.4,8.43,31.74.23,6.62,1.62,22.42-1.42,31.79Z"></path><path class="cls-20" d="M275.71,159.62c1.94-.03,3.91.14,5.74.81,2.91,1.07,5.21,3.32,7.42,5.51.59.59,1.21,1.53.66,2.16-.29.33-.78.37-1.22.39-7.16.34-14.31.68-21.47,1.03-.43.02-.88.04-1.27-.15-.34-.17-.59-.48-.81-.79-1.41-2.1-2.11-5.57.53-6.74,3.24-1.43,6.89-2.16,10.42-2.21Z"></path><polygon class="cls-7" points="211.35 165.26 198.51 191.4 252.83 191.4 211.35 165.26"></polygon><path class="cls-20" d="M349.21,189.96c12.73.22,24.96,8.51,29.87,20.26.23.55.42,1.27-.01,1.69-.19.19-.47.26-.73.3-1.96.26-3.74-1.08-5.26-2.35-2.75-2.29-5.5-4.58-8.25-6.87-3.5,3.77-8.47,6.13-13.61,6.45-5.13.32-10.36-1.41-14.3-4.72-.78-.66-1.53-1.41-1.89-2.37-.26-.7-.28-1.46-.29-2.21-.02-2.67-.73-8.64,2.36-9.95,1.36-.57,3.46-.05,4.87-.04,2.42.01,4.83-.22,7.24-.18Z"></path><ellipse class="cls-19" cx="235.06" cy="124.23" rx="16.61" ry="7.32"></ellipse><ellipse class="cls-6" cx="236.72" cy="125.37" rx="7.32" ry="16.61" transform="translate(35.09 301.71) rotate(-69.08)"></ellipse><path class="cls-20" d="M271.58,108.54c1.38-3.78,2.6-7.68,3.6-11.49.9-3.39,1.64-6.87,2.23-10.34.38-2.25.75-3.93-.6-5.9-3.84-5.01-9.04-8.82-14.97-10.97-4.44-1.72-9.64-2.47-13.85-.28-2.99,1.79-5.35,4.45-6.78,7.63-4.04,7.88-5.03,16.89-6.97,25.53-1.49,6.69-3.6,13.23-6.31,19.53,2.31,3.23,5.38,5.84,8.93,7.61,1.73.64,3.56,1,5.4,1.08.99.17,2.01-.05,2.84-.62.51-.58.86-1.29,1-2.05.19-.71.33-1.41.59-2.08h0c1.16-3.84,2.67-7.57,4.51-11.14.11-.32.35-.58.65-.72.28-.04.57.02.82.17l1.04.4c1.82.85,3.7,1.53,5.64,2.05,2.32.62,4.78.37,6.94-.69,2.79-1.43,4.25-4.69,5.3-7.71Z"></path><path class="cls-17" d="M273.21,81.54c1.23.73,2.2,1.63,3.67,1.28,1.36-.32,3.19-1.48,4.38-2.23,3.12-1.95,5.55-5.03,6.6-8.57.48-1.62.68-3.37.21-5-.45-1.56-1.48-2.89-2.61-4.06-2.22-2.29-4.95-4.13-8.02-5.01-4.47-1.3-9.32-.51-13.69,1.1-.98.36-1.98.76-3.02.69-.91-.07-1.75-.5-2.58-.88-5.33-2.46-11.62-3.17-17.14-1.16-3.24,1.18-6.13,3.24-9.47,4.11-2.81.73-6.01.67-8.24,2.54-2.04,1.71-2.66,4.75-1.9,7.31.75,2.55,2.68,4.64,4.93,6.07-2.32,2.34-2.04,6.72.57,8.73.83.64,1.93,1.13,2.49,2.06.42.69.43,1.54.85,2.27.99,1.71,2.7,2.84,2.54,5.06-.06.93-.49,1.79-.74,2.68-.37,1.34-.35,2.72.16,4.01.33.83.74,2.75,1.51,3.21.87.52,1.88-.2,2.47-.97,2.45-3.31,3.69-7.36,3.53-11.48-.41-2.13-.29-4.32.35-6.4.96-1.92,4.28-2.46,5.13-.79.85,1.67,0,4.64,1.8,4.68.35-6.4,5.47-12.67,11.83-12.82,3.31-.08,6.43,1.28,9.54,2.21,1.46.43,3.35.49,4.62,1.21.08.05.16.09.23.14Z"></path><path class="cls-21" d="M253.67,114.9c-4.03-2.47-7.79-5.35-11.22-8.59-5.42,13.07,4.28,19.9,4.28,19.9h0c1.16-3.84,2.67-7.57,4.51-11.14.11-.32.35-.58.65-.72.28-.04.57.02.82.17l1.04.4h-.08Z"></path></g></g><path class="cls-19" d="M229.77,146.41l55.45,31.5,58.41,12-7.14,19.81s-52.63-.33-63.56-5.21c-10.93-4.87-65.49-34.1-65.49-34.1,0,0-2.98-29.27,22.33-24Z"></path></g><g id="laptop"><path class="cls-17" d="M362.52,169.68h-68.6c-1.61,0-2.79-1.52-2.38-3.08l12.89-50.02c.28-1.09,1.26-1.85,2.38-1.85h68.6c1.61,0,2.79,1.52,2.38,3.08l-12.89,50.02c-.28,1.09-1.26,1.85-2.38,1.85Z"></path><path class="cls-19" d="M358.58,165.98h-60.1c-1.41,0-2.44-1.33-2.09-2.69l11.29-43.82c.25-.95,1.1-1.62,2.09-1.62h60.1c1.41,0,2.44,1.33,2.09,2.69l-11.29,43.82c-.25.95-1.1,1.62-2.09,1.62Z"></path><path class="cls-17" d="M264.37,168.15h99.63v3.49c0,2.78-2.25,5.03-5.03,5.03h-89.57c-2.78,0-5.03-2.25-5.03-5.03v-3.49h0Z"></path><circle class="cls-22" cx="333.02" cy="142.21" r="10.61"></circle><path class="cls-19" d="M331.91,145.92s-.05,0-.08,0c-.43-.02-.83-.23-1.1-.57l-2.51-3.16c-.51-.65-.41-1.59.24-2.11.65-.51,1.59-.41,2.11.24l1.46,1.83,3.93-4c.58-.59,1.53-.6,2.12-.02.59.58.6,1.53.02,2.12l-5.12,5.21c-.28.29-.67.45-1.07.45Z"></path></g></svg>