<svg width="24" height="24" viewBox="0 0 24 24" fill="none" xmlns="http://www.w3.org/2000/svg">
<path d="M3 12C3 8.22876 3 6.34315 4.17157 5.17157C5.34315 4 7.22876 4 11 4H13C16.7712 4 18.6569 4 19.8284 5.17157C21 6.34315 21 8.22876 21 12C21 15.7712 21 17.6569 19.8284 18.8284C18.6569 20 16.7712 20 13 20H11C7.22876 20 5.34315 20 4.17157 18.8284C3 17.6569 3 15.7712 3 12Z" stroke="black" stroke-width="null" class="my-path"/>
<path d="M3.54883 6.73307L7.76733 9.36198C9.82587 10.6448 10.8551 11.2863 11.9998 11.2861C13.1445 11.2859 14.1736 10.6441 16.2317 9.36063L20.461 6.72314" stroke="black" stroke-width="null" stroke-linecap="round" stroke-linejoin="round" class="my-path"/>
</svg>