<svg width="195" height="64" viewBox="0 0 195 64" fill="none" xmlns="http://www.w3.org/2000/svg">
<g filter="url(#filter0_d_101_11)">
<path d="M41.8 44.32C40.0507 44.32 38.5573 44 37.32 43.36C36.0827 42.72 34.984 41.792 34.024 40.576L36.072 38.528C36.776 39.5093 37.5867 40.256 38.504 40.768C39.4213 41.2587 40.552 41.504 41.896 41.504C43.2187 41.504 44.2747 41.216 45.064 40.64C45.8747 40.064 46.28 39.2747 46.28 38.272C46.28 37.44 46.088 36.768 45.704 36.256C45.32 35.744 44.7973 35.328 44.136 35.008C43.496 34.6667 42.792 34.368 42.024 34.112C41.256 33.8347 40.488 33.5467 39.72 33.248C38.952 32.928 38.248 32.544 37.608 32.096C36.968 31.6267 36.4453 31.0187 36.04 30.272C35.656 29.5253 35.464 28.5867 35.464 27.456C35.464 26.1973 35.7627 25.1307 36.36 24.256C36.9787 23.36 37.8107 22.6773 38.856 22.208C39.9227 21.7173 41.1173 21.472 42.44 21.472C43.8907 21.472 45.192 21.76 46.344 22.336C47.496 22.8907 48.4347 23.6267 49.16 24.544L47.112 26.592C46.4507 25.824 45.736 25.248 44.968 24.864C44.2213 24.48 43.3573 24.288 42.376 24.288C41.1813 24.288 40.232 24.5547 39.528 25.088C38.824 25.6 38.472 26.3253 38.472 27.264C38.472 28.0107 38.664 28.6187 39.048 29.088C39.4533 29.536 39.976 29.92 40.616 30.24C41.256 30.56 41.96 30.8587 42.728 31.136C43.5173 31.392 44.296 31.68 45.064 32C45.832 32.32 46.536 32.7253 47.176 33.216C47.816 33.7067 48.328 34.3467 48.712 35.136C49.1173 35.904 49.32 36.8747 49.32 38.048C49.32 40.0107 48.6373 41.5467 47.272 42.656C45.928 43.7653 44.104 44.32 41.8 44.32ZM59.4333 44.32C57.9186 44.32 56.5533 43.9787 55.3373 43.296C54.1213 42.592 53.1613 41.6427 52.4573 40.448C51.7533 39.2533 51.4013 37.8987 51.4013 36.384C51.4013 34.8907 51.7426 33.5467 52.4253 32.352C53.1293 31.1573 54.0679 30.2187 55.2413 29.536C56.4359 28.832 57.7693 28.48 59.2413 28.48C60.6493 28.48 61.8866 28.8 62.9533 29.44C64.0413 30.08 64.8839 30.9653 65.4813 32.096C66.0999 33.2267 66.4093 34.5067 66.4093 35.936C66.4093 36.1493 66.3986 36.384 66.3773 36.64C66.3559 36.8747 66.3133 37.152 66.2493 37.472H53.4173V35.072H64.7133L63.6573 36C63.6573 34.976 63.4759 34.112 63.1133 33.408C62.7506 32.6827 62.2386 32.128 61.5773 31.744C60.9159 31.3387 60.1159 31.136 59.1773 31.136C58.1959 31.136 57.3319 31.3493 56.5853 31.776C55.8386 32.2027 55.2626 32.8 54.8573 33.568C54.4519 34.336 54.2493 35.2427 54.2493 36.288C54.2493 37.3547 54.4626 38.2933 54.8893 39.104C55.3159 39.8933 55.9239 40.512 56.7133 40.96C57.5026 41.3867 58.4093 41.6 59.4333 41.6C60.2866 41.6 61.0653 41.4507 61.7693 41.152C62.4946 40.8533 63.1133 40.4053 63.6253 39.808L65.4813 41.696C64.7559 42.5493 63.8599 43.2 62.7933 43.648C61.7479 44.096 60.6279 44.32 59.4333 44.32ZM71.1668 44V22.432H74.0468V44H71.1668ZM67.4228 31.424V28.8H77.7908V31.424H67.4228ZM91.114 44V35.136C91.114 33.984 90.7513 33.0347 90.026 32.288C89.3007 31.5413 88.362 31.168 87.21 31.168C86.442 31.168 85.7593 31.3387 85.162 31.68C84.5647 32.0213 84.0953 32.4907 83.754 33.088C83.4127 33.6853 83.242 34.368 83.242 35.136L82.058 34.464C82.058 33.312 82.314 32.288 82.826 31.392C83.338 30.496 84.0527 29.792 84.97 29.28C85.8873 28.7467 86.922 28.48 88.074 28.48C89.226 28.48 90.2393 28.736 91.114 29.248C92.01 29.76 92.714 30.4747 93.226 31.392C93.738 32.3093 93.994 33.3653 93.994 34.56V44H91.114ZM80.362 44V21.152H83.242V44H80.362ZM97.6753 44V28.8H100.555V44H97.6753ZM99.1153 25.76C98.5819 25.76 98.1446 25.5893 97.8033 25.248C97.4619 24.8853 97.2913 24.4373 97.2913 23.904C97.2913 23.392 97.4619 22.9653 97.8033 22.624C98.1446 22.2613 98.5819 22.08 99.1153 22.08C99.6486 22.08 100.086 22.2613 100.427 22.624C100.769 22.9653 100.939 23.392 100.939 23.904C100.939 24.4373 100.769 24.8853 100.427 25.248C100.086 25.5893 99.6486 25.76 99.1153 25.76ZM106.726 44V26.528C106.726 25.3973 106.971 24.416 107.462 23.584C107.952 22.7307 108.624 22.0587 109.478 21.568C110.352 21.0773 111.366 20.832 112.518 20.832C113.392 20.832 114.15 20.9813 114.79 21.28C115.43 21.5787 116.016 22.016 116.55 22.592L114.662 24.448C114.384 24.1493 114.075 23.9253 113.734 23.776C113.392 23.6053 112.976 23.52 112.486 23.52C111.568 23.52 110.854 23.7867 110.342 24.32C109.851 24.8533 109.606 25.5893 109.606 26.528V44H106.726ZM102.982 31.424V28.8H114.438V31.424H102.982ZM121.573 44.128L114.981 28.8H118.181L123.077 40.8H122.053L127.205 28.8H130.405L123.301 44.128H121.573ZM117.221 50.368L121.701 41.184L123.301 44.128L120.421 50.368H117.221Z" fill="#8080D7"/>
</g>
<path d="M13.5 20L26 26.1224M13.5 20L1 26.1224M13.5 20V32.7551M26 26.1224L13.5 32.7551M26 26.1224V38.666M13.5 32.7551L1 26.1224M13.5 32.7551V45M13.5 32.7551L1 38.666M13.5 32.7551L26 38.666M1 26.1224V38.666M1 38.666L13.5 45M13.5 45L26 38.666" stroke="#8080D7"/>
<defs>
<filter id="filter0_d_101_11" x="30.024" y="20.832" width="104.381" height="37.536" filterUnits="userSpaceOnUse" color-interpolation-filters="sRGB">
<feFlood flood-opacity="0" result="BackgroundImageFix"/>
<feColorMatrix in="SourceAlpha" type="matrix" values="0 0 0 0 0 0 0 0 0 0 0 0 0 0 0 0 0 0 127 0" result="hardAlpha"/>
<feOffset dy="4"/>
<feGaussianBlur stdDeviation="2"/>
<feComposite in2="hardAlpha" operator="out"/>
<feColorMatrix type="matrix" values="0 0 0 0 0 0 0 0 0 0 0 0 0 0 0 0 0 0 0.25 0"/>
<feBlend mode="normal" in2="BackgroundImageFix" result="effect1_dropShadow_101_11"/>
<feBlend mode="normal" in="SourceGraphic" in2="effect1_dropShadow_101_11" result="shape"/>
</filter>
</defs>
</svg>
