<svg width="194" height="64" viewBox="0 0 194 64" fill="none" xmlns="http://www.w3.org/2000/svg">
<g filter="url(#filter0_d_35_18)">
<path d="M41.4374 44.32C39.6881 44.32 38.1947 44 36.9574 43.36C35.7201 42.72 34.6214 41.792 33.6614 40.576L35.7094 38.528C36.4134 39.5093 37.2241 40.256 38.1414 40.768C39.0587 41.2587 40.1894 41.504 41.5334 41.504C42.8561 41.504 43.9121 41.216 44.7014 40.64C45.5121 40.064 45.9174 39.2747 45.9174 38.272C45.9174 37.44 45.7254 36.768 45.3414 36.256C44.9574 35.744 44.4347 35.328 43.7734 35.008C43.1334 34.6667 42.4294 34.368 41.6614 34.112C40.8934 33.8347 40.1254 33.5467 39.3574 33.248C38.5894 32.928 37.8854 32.544 37.2454 32.096C36.6054 31.6267 36.0827 31.0187 35.6774 30.272C35.2934 29.5253 35.1014 28.5867 35.1014 27.456C35.1014 26.1973 35.4001 25.1307 35.9974 24.256C36.6161 23.36 37.4481 22.6773 38.4934 22.208C39.5601 21.7173 40.7547 21.472 42.0774 21.472C43.5281 21.472 44.8294 21.76 45.9814 22.336C47.1334 22.8907 48.0721 23.6267 48.7974 24.544L46.7494 26.592C46.0881 25.824 45.3734 25.248 44.6054 24.864C43.8587 24.48 42.9947 24.288 42.0134 24.288C40.8187 24.288 39.8694 24.5547 39.1654 25.088C38.4614 25.6 38.1094 26.3253 38.1094 27.264C38.1094 28.0107 38.3014 28.6187 38.6854 29.088C39.0907 29.536 39.6134 29.92 40.2534 30.24C40.8934 30.56 41.5974 30.8587 42.3654 31.136C43.1547 31.392 43.9334 31.68 44.7014 32C45.4694 32.32 46.1734 32.7253 46.8134 33.216C47.4534 33.7067 47.9654 34.3467 48.3494 35.136C48.7547 35.904 48.9574 36.8747 48.9574 38.048C48.9574 40.0107 48.2747 41.5467 46.9094 42.656C45.5654 43.7653 43.7414 44.32 41.4374 44.32ZM59.0706 44.32C57.556 44.32 56.1906 43.9787 54.9746 43.296C53.7586 42.592 52.7986 41.6427 52.0946 40.448C51.3906 39.2533 51.0386 37.8987 51.0386 36.384C51.0386 34.8907 51.38 33.5467 52.0626 32.352C52.7666 31.1573 53.7053 30.2187 54.8786 29.536C56.0733 28.832 57.4066 28.48 58.8786 28.48C60.2866 28.48 61.524 28.8 62.5906 29.44C63.6786 30.08 64.5213 30.9653 65.1186 32.096C65.7373 33.2267 66.0466 34.5067 66.0466 35.936C66.0466 36.1493 66.036 36.384 66.0146 36.64C65.9933 36.8747 65.9506 37.152 65.8866 37.472H53.0546V35.072H64.3506L63.2946 36C63.2946 34.976 63.1133 34.112 62.7506 33.408C62.388 32.6827 61.876 32.128 61.2146 31.744C60.5533 31.3387 59.7533 31.136 58.8146 31.136C57.8333 31.136 56.9693 31.3493 56.2226 31.776C55.476 32.2027 54.9 32.8 54.4946 33.568C54.0893 34.336 53.8866 35.2427 53.8866 36.288C53.8866 37.3547 54.1 38.2933 54.5266 39.104C54.9533 39.8933 55.5613 40.512 56.3506 40.96C57.14 41.3867 58.0466 41.6 59.0706 41.6C59.924 41.6 60.7026 41.4507 61.4066 41.152C62.132 40.8533 62.7506 40.4053 63.2626 39.808L65.1186 41.696C64.3933 42.5493 63.4973 43.2 62.4306 43.648C61.3853 44.096 60.2653 44.32 59.0706 44.32ZM70.8041 44V22.432H73.6841V44H70.8041ZM67.0601 31.424V28.8H77.4281V31.424H67.0601ZM90.7514 44V35.136C90.7514 33.984 90.3887 33.0347 89.6634 32.288C88.9381 31.5413 87.9994 31.168 86.8474 31.168C86.0794 31.168 85.3967 31.3387 84.7994 31.68C84.2021 32.0213 83.7327 32.4907 83.3914 33.088C83.0501 33.6853 82.8794 34.368 82.8794 35.136L81.6954 34.464C81.6954 33.312 81.9514 32.288 82.4634 31.392C82.9754 30.496 83.6901 29.792 84.6074 29.28C85.5247 28.7467 86.5594 28.48 87.7114 28.48C88.8634 28.48 89.8767 28.736 90.7514 29.248C91.6474 29.76 92.3514 30.4747 92.8634 31.392C93.3754 32.3093 93.6314 33.3653 93.6314 34.56V44H90.7514ZM79.9994 44V21.152H82.8794V44H79.9994ZM97.3126 44V28.8H100.193V44H97.3126ZM98.7526 25.76C98.2193 25.76 97.782 25.5893 97.4406 25.248C97.0993 24.8853 96.9286 24.4373 96.9286 23.904C96.9286 23.392 97.0993 22.9653 97.4406 22.624C97.782 22.2613 98.2193 22.08 98.7526 22.08C99.286 22.08 99.7233 22.2613 100.065 22.624C100.406 22.9653 100.577 23.392 100.577 23.904C100.577 24.4373 100.406 24.8853 100.065 25.248C99.7233 25.5893 99.286 25.76 98.7526 25.76ZM106.363 44V26.528C106.363 25.3973 106.608 24.416 107.099 23.584C107.59 22.7307 108.262 22.0587 109.115 21.568C109.99 21.0773 111.003 20.832 112.155 20.832C113.03 20.832 113.787 20.9813 114.427 21.28C115.067 21.5787 115.654 22.016 116.187 22.592L114.299 24.448C114.022 24.1493 113.712 23.9253 113.371 23.776C113.03 23.6053 112.614 23.52 112.123 23.52C111.206 23.52 110.491 23.7867 109.979 24.32C109.488 24.8533 109.243 25.5893 109.243 26.528V44H106.363ZM102.619 31.424V28.8H114.075V31.424H102.619ZM121.21 44.128L114.618 28.8H117.818L122.714 40.8H121.69L126.842 28.8H130.042L122.938 44.128H121.21ZM116.858 50.368L121.338 41.184L122.938 44.128L120.058 50.368H116.858Z" fill="black"/>
</g>
<path d="M13.0653 20L25.5653 26.1224M13.0653 20L0.565323 26.1224M13.0653 20V32.7551M25.5653 26.1224L13.0653 32.7551M25.5653 26.1224V38.666M13.0653 32.7551L0.565323 26.1224M13.0653 32.7551V45M13.0653 32.7551L0.565323 38.666M13.0653 32.7551L25.5653 38.666M0.565323 26.1224V38.666M0.565323 38.666L13.0653 45M13.0653 45L25.5653 38.666" stroke="black"/>
<defs>
<filter id="filter0_d_35_18" x="29.6614" y="20.832" width="104.381" height="37.536" filterUnits="userSpaceOnUse" color-interpolation-filters="sRGB">
<feFlood flood-opacity="0" result="BackgroundImageFix"/>
<feColorMatrix in="SourceAlpha" type="matrix" values="0 0 0 0 0 0 0 0 0 0 0 0 0 0 0 0 0 0 127 0" result="hardAlpha"/>
<feOffset dy="4"/>
<feGaussianBlur stdDeviation="2"/>
<feComposite in2="hardAlpha" operator="out"/>
<feColorMatrix type="matrix" values="0 0 0 0 0 0 0 0 0 0 0 0 0 0 0 0 0 0 0.25 0"/>
<feBlend mode="normal" in2="BackgroundImageFix" result="effect1_dropShadow_35_18"/>
<feBlend mode="normal" in="SourceGraphic" in2="effect1_dropShadow_35_18" result="shape"/>
</filter>
</defs>
</svg>
