<svg width="30" height="30" viewBox="0 0 30 30" fill="none" xmlns="http://www.w3.org/2000/svg">
<circle cx="15" cy="15" r="15" fill="#8080D7"/>
<path d="M18.1225 11.5653C18.0543 10.8778 17.7617 10.3437 17.2447 9.96307C16.7276 9.58239 16.0259 9.39204 15.1396 9.39204C14.5373 9.39204 14.0288 9.47727 13.614 9.64773C13.1992 9.8125 12.881 10.0426 12.6594 10.3381C12.4435 10.6335 12.3356 10.9688 12.3356 11.3438C12.3242 11.6562 12.3896 11.929 12.5316 12.1619C12.6793 12.3949 12.881 12.5966 13.1367 12.767C13.3924 12.9318 13.6879 13.0767 14.0231 13.2017C14.3583 13.321 14.7163 13.4233 15.0969 13.5085L16.6651 13.8835C17.4265 14.054 18.1254 14.2812 18.7617 14.5653C19.3981 14.8494 19.9492 15.1989 20.4151 15.6136C20.881 16.0284 21.2418 16.517 21.4975 17.0795C21.7589 17.642 21.8924 18.2869 21.8981 19.0142C21.8924 20.0824 21.6197 21.0085 21.0799 21.7926C20.5458 22.571 19.7731 23.1761 18.7617 23.608C17.756 24.0341 16.543 24.2472 15.1225 24.2472C13.7134 24.2472 12.4862 24.0312 11.4407 23.5994C10.4009 23.1676 9.58842 22.5284 9.0032 21.6818C8.42365 20.8295 8.11967 19.7756 8.09126 18.5199H11.6623C11.7021 19.1051 11.8697 19.5937 12.1651 19.9858C12.4663 20.3722 12.8668 20.6648 13.3668 20.8636C13.8725 21.0568 14.4435 21.1534 15.0799 21.1534C15.7049 21.1534 16.2475 21.0625 16.7077 20.8807C17.1737 20.6989 17.5344 20.446 17.7901 20.1222C18.0458 19.7983 18.1737 19.4261 18.1737 19.0057C18.1737 18.6136 18.0572 18.2841 17.8242 18.017C17.5969 17.75 17.2617 17.5227 16.8185 17.3352C16.381 17.1477 15.8441 16.9773 15.2077 16.8239L13.3072 16.3466C11.8356 15.9886 10.6737 15.429 9.82138 14.6676C8.96911 13.9062 8.54581 12.8807 8.55149 11.5909C8.54581 10.5341 8.82706 9.6108 9.39524 8.82102C9.96911 8.03125 10.756 7.41477 11.756 6.97159C12.756 6.52841 13.8924 6.30682 15.1651 6.30682C16.4606 6.30682 17.5913 6.52841 18.5572 6.97159C19.5288 7.41477 20.2844 8.03125 20.8242 8.82102C21.364 9.6108 21.6424 10.5256 21.6594 11.5653H18.1225Z" fill="white"/>
</svg>
