<svg width="24" height="24" viewBox="0 0 24 24" fill="none" xmlns="http://www.w3.org/2000/svg">
<path d="M6.02427 10.2591L13.7368 17.9716C15.4072 19.642 18.1154 19.642 19.7858 17.9716C20.4539 17.3035 20.4539 16.2202 19.7858 15.552L17.6434 13.4096C17.1562 12.9224 16.3663 12.9224 15.8791 13.4096C15.3919 13.8968 14.602 13.8968 14.1148 13.4096L10.2334 9.52819C9.74619 9.041 9.74619 8.25109 10.2334 7.7639C10.7206 7.2767 10.7206 6.4868 10.2334 5.9996L8.44388 4.2101C7.77573 3.54195 6.69243 3.54194 6.02428 4.2101C4.35389 5.88049 4.35389 8.58872 6.02427 10.2591Z" stroke="black" stroke-width="null" class="my-path"/>
</svg>