<svg id="visual" viewBox="0 0 900 600" width="900" height="600" xmlns="http://www.w3.org/2000/svg" xmlns:xlink="http://www.w3.org/1999/xlink" version="1.1"><path d="M0 491L37.5 474.7C75 458.3 150 425.7 225 424.5C300 423.3 375 453.7 450 465.5C525 477.3 600 470.7 675 447.3C750 424 825 384 862.5 364L900 344L900 601L862.5 601C825 601 750 601 675 601C600 601 525 601 450 601C375 601 300 601 225 601C150 601 75 601 37.5 601L0 601Z" fill="#f1f5f9" stroke-linecap="round" stroke-linejoin="miter"></path></svg>